<svg xmlns="http://www.w3.org/2000/svg" width="1600" height="1050" viewBox="0 0 1600 1050" role="img" aria-labelledby="title desc">
  <title id="title">OSW fluid geography of Earth's ocean</title>
  <desc id="desc">An ocean-first conceptual map on Natural Earth coastlines. This water-first rendering masks land with the ocean palette and retains only ghost coastlines so fluid features lead the figure-ground hierarchy. Twelve numbered callouts identify continent-like warm reservoirs, boundary-current pathways, transient anomalies, buried polar water masses, the Antarctic Circumpolar Current, and exchange gates. Reservoirs use irregular fluid coastlines to distinguish persistent or seasonal heatmasses from round transient blobs. All heat shapes and pathways are schematic, permeable, and moving rather than measured boundaries. The figure does not calculate heat content or transport.</desc>
  <metadata>
    Natural Earth 1:110m land geometry, public domain, commit ca96624a56bd078437bca8184e78163e5039ad19, source SHA-256 9e0729ee253ca7d7a5c4ae9395fb1902264c5377c52e224d13dd85010e2835d9, https://raw.githubusercontent.com/nvkelso/natural-earth-vector/ca96624a56bd078437bca8184e78163e5039ad19/geojson/ne_110m_land.geojson. OSW conceptual overlays are original MIT-licensed artwork.
  </metadata>
  <defs>
    <linearGradient id="ocean" x1="0" y1="0" x2="0" y2="1">
      <stop offset="0" stop-color="#123d4b"/>
      <stop offset="0.47" stop-color="#0a2b39"/>
      <stop offset="1" stop-color="#071c29"/>
    </linearGradient>
    <linearGradient id="warmPool" x1="0" y1="0" x2="0" y2="1">
      <stop offset="0" stop-color="#ffd66f" stop-opacity=".74"/>
      <stop offset=".55" stop-color="#ffad48" stop-opacity=".62"/>
      <stop offset="1" stop-color="#ff7d48" stop-opacity=".38"/>
    </linearGradient>
    <radialGradient id="blob" cx="50%" cy="50%" r="55%">
      <stop offset="0" stop-color="#ff766c" stop-opacity=".54"/>
      <stop offset="1" stop-color="#ff766c" stop-opacity=".04"/>
    </radialGradient>
    <linearGradient id="buriedBand" x1="0" y1="0" x2="1" y2="0">
      <stop offset="0" stop-color="#8c7be7" stop-opacity=".08"/>
      <stop offset=".5" stop-color="#c1b4ff" stop-opacity=".48"/>
      <stop offset="1" stop-color="#8c7be7" stop-opacity=".08"/>
    </linearGradient>
    <pattern id="buriedPattern" width="14" height="14" patternUnits="userSpaceOnUse" patternTransform="rotate(28)">
      <rect width="14" height="14" fill="#8c7be7" fill-opacity=".12"/>
      <path d="M0 0V14" stroke="#cfc6ff" stroke-width="3" stroke-opacity=".4"/>
    </pattern>
    <filter id="softGlow" x="-40%" y="-40%" width="180%" height="180%">
      <feGaussianBlur stdDeviation="8" result="blur"/>
      <feMerge><feMergeNode in="blur"/><feMergeNode in="SourceGraphic"/></feMerge>
    </filter>
    <filter id="cardShadow" x="-20%" y="-30%" width="140%" height="170%">
      <feDropShadow dx="0" dy="5" stdDeviation="7" flood-color="#020b10" flood-opacity=".58"/>
    </filter>
    <marker id="warmArrow" viewBox="0 0 12 12" refX="10" refY="6" markerWidth="8" markerHeight="8" orient="auto"><path d="M1 1L11 6 1 11Z" fill="#ffb454"/></marker>
    <marker id="coldArrow" viewBox="0 0 12 12" refX="10" refY="6" markerWidth="8" markerHeight="8" orient="auto"><path d="M1 1L11 6 1 11Z" fill="#8eeaf2"/></marker>
    <clipPath id="mapClip"><rect x="60" y="90" width="1480" height="740" rx="28"/></clipPath>
    <path id="landGeometry" fill-rule="evenodd" d="M555.1,789.1 L553.9,791.1 L552.7,793.0 L544.1,792.4 L534.9,792.7 L529.7,791.3 L529.7,791.1 L527.5,789.9 L536.7,790.1 L545.6,790.5 L548.7,788.8 L550.8,787.4 L555.1,789.1 Z M145.5,786.8 L137.6,787.4 L132.2,785.9 L129.8,784.5 L129.6,784.2 L127.0,783.1 L127.0,783.1 L129.5,781.6 L137.1,782.2 L141.2,783.5 L144.4,785.0 L145.5,786.8 Z M614.4,780.9 L619.4,782.6 L621.2,785.1 L621.7,786.9 L621.9,789.0 L615.5,790.3 L608.8,791.3 L601.1,792.3 L592.5,793.1 L582.7,792.9 L577.3,791.5 L578.0,789.8 L586.8,788.7 L590.4,787.3 L592.9,785.5 L594.8,784.0 L597.3,782.6 L600.0,780.9 L600.0,780.9 L602.0,780.9 L608.2,780.0 L614.4,780.9 Z M301.7,762.2 L307.0,762.8 L311.9,762.1 L309.6,763.5 L305.7,764.6 L300.0,764.3 L295.9,762.8 L295.9,762.8 L296.8,761.4 L301.7,762.2 Z M283.8,762.1 L290.1,763.7 L287.7,763.5 L282.4,763.1 L276.7,762.0 L276.7,762.0 L279.7,761.1 L283.8,762.1 Z M393.1,755.7 L397.6,756.3 L402.1,755.8 L404.5,758.1 L401.3,757.8 L396.3,758.0 L391.2,757.8 L385.7,758.1 L381.5,757.3 L379.3,755.6 L379.3,755.6 L381.9,754.8 L387.1,755.4 L393.1,755.7 Z M518.6,751.7 L519.1,753.6 L518.3,755.2 L517.2,756.7 L512.4,757.3 L507.8,758.1 L502.4,758.0 L504.4,756.4 L499.6,756.9 L495.0,757.5 L491.9,756.3 L491.6,754.6 L496.1,753.0 L496.1,753.0 L498.9,752.5 L503.7,752.7 L504.9,750.6 L505.1,749.0 L505.1,745.7 L507.4,743.8 L511.2,743.2 L513.4,744.7 L514.3,746.2 L516.1,748.1 L517.5,749.9 L518.6,751.7 Z M559.0,723.7 L557.3,724.6 L554.2,724.0 L550.8,724.4 L548.0,725.3 L545.0,726.4 L543.0,727.6 L542.4,729.2 L542.7,730.7 L544.6,732.1 L541.8,733.1 L537.9,733.4 L535.7,734.8 L533.3,736.1 L530.7,737.8 L530.0,739.4 L531.5,741.1 L533.7,742.3 L537.0,743.3 L540.2,744.6 L541.9,746.2 L542.8,747.7 L544.0,749.4 L545.9,750.7 L547.1,752.3 L547.7,756.0 L548.9,757.6 L549.2,759.2 L550.5,760.8 L549.9,763.0 L547.7,764.7 L545.3,766.0 L539.8,766.6 L537.9,768.0 L535.4,769.4 L529.2,770.9 L523.8,771.6 L518.6,772.5 L513.1,773.4 L509.8,775.1 L503.1,775.2 L495.9,775.1 L489.4,775.4 L482.5,775.4 L483.7,777.0 L490.0,777.7 L494.6,778.8 L497.2,780.3 L492.6,781.6 L485.5,781.2 L479.6,782.2 L479.4,783.9 L479.2,785.5 L484.1,786.9 L485.0,788.4 L490.2,790.0 L498.9,790.6 L506.3,791.7 L512.2,793.0 L519.7,794.3 L529.9,795.0 L539.9,796.1 L547.0,797.3 L554.6,798.7 L558.6,800.6 L560.6,802.1 L565.6,800.7 L572.4,799.5 L579.6,798.2 L588.1,797.1 L595.4,796.0 L605.7,795.9 L615.7,796.5 L624.0,797.4 L626.7,795.7 L632.4,794.5 L642.8,794.4 L650.9,793.5 L658.6,792.6 L667.2,792.1 L676.3,791.3 L682.6,790.3 L679.7,788.8 L678.0,787.4 L678.0,785.8 L670.0,786.0 L661.5,786.7 L653.5,786.7 L652.4,785.1 L652.9,782.1 L654.8,781.2 L660.6,780.2 L667.6,779.2 L672.6,778.0 L677.6,776.8 L681.3,775.2 L686.9,774.5 L692.5,773.9 L695.3,773.6 L701.6,773.4 L707.7,772.9 L712.7,772.1 L717.7,771.1 L722.2,770.1 L728.0,768.9 L731.6,767.5 L735.4,766.3 L736.7,764.7 L732.3,763.7 L733.8,762.0 L736.5,760.7 L740.8,759.9 L745.3,758.9 L749.5,757.7 L752.7,756.0 L754.7,754.1 L757.7,753.0 L762.6,753.2 L764.6,754.6 L769.5,754.8 L769.7,753.2 L771.8,751.6 L776.2,752.0 L777.2,753.5 L782.2,753.8 L787.5,753.1 L792.6,752.6 L797.3,752.8 L799.1,754.5 L803.6,753.1 L807.8,752.4 L812.4,751.9 L817.0,751.3 L821.2,750.3 L825.8,749.7 L829.3,748.8 L831.8,747.3 L834.9,748.4 L839.2,747.8 L842.1,749.8 L844.5,751.2 L849.1,750.4 L851.0,748.8 L855.2,747.7 L860.6,747.9 L862.2,749.4 L865.6,747.9 L870.0,747.4 L874.8,747.3 L879.2,747.3 L883.8,747.8 L888.2,748.1 L890.1,749.4 L892.8,750.6 L897.3,749.9 L902.1,749.8 L906.8,749.8 L911.4,749.7 L915.5,749.1 L919.8,748.6 L923.5,747.5 L927.3,746.8 L931.5,746.4 L934.7,745.2 L936.9,743.0 L939.2,741.6 L943.5,742.3 L945.1,743.7 L948.7,744.7 L952.9,744.4 L955.8,745.8 L958.9,746.9 L963.1,745.9 L964.5,744.1 L968.2,743.4 L972.5,742.0 L976.5,741.5 L981.4,740.7 L984.6,739.8 L988.0,738.8 L991.2,737.9 L995.0,738.4 L998.7,736.9 L1001.4,735.8 L1005.3,735.9 L1008.7,734.9 L1009.5,733.5 L1012.9,732.4 L1016.3,731.6 L1020.4,730.9 L1024.2,730.6 L1027.8,730.8 L1031.7,731.2 L1035.0,732.4 L1035.4,734.1 L1039.0,735.5 L1041.5,736.6 L1046.4,737.1 L1049.2,738.2 L1052.5,739.4 L1056.5,739.6 L1059.8,738.8 L1063.3,737.1 L1067.2,738.0 L1071.2,738.5 L1075.1,739.0 L1079.1,739.3 L1083.2,739.3 L1086.6,743.6 L1086.4,744.6 L1086.0,746.5 L1082.0,747.5 L1078.8,749.0 L1079.3,750.6 L1083.9,750.6 L1083.4,752.2 L1081.3,753.7 L1079.3,755.4 L1082.5,756.7 L1087.2,757.1 L1092.0,756.4 L1094.2,754.8 L1095.6,753.2 L1097.9,751.9 L1100.4,750.7 L1101.5,749.3 L1103.7,747.3 L1106.2,746.9 L1110.9,746.7 L1115.0,746.2 L1119.2,745.6 L1121.2,744.0 L1122.4,742.4 L1125.2,740.9 L1129.3,739.8 L1132.7,739.0 L1135.0,737.7 L1137.3,736.9 L1140.3,736.3 L1144.4,736.7 L1148.1,736.3 L1152.1,735.8 L1156.6,736.1 L1159.6,734.9 L1161.7,732.2 L1163.3,733.3 L1165.2,735.3 L1168.6,736.1 L1172.6,736.4 L1176.5,735.9 L1180.7,736.2 L1184.6,736.3 L1187.2,735.9 L1190.6,736.1 L1193.8,737.0 L1197.5,736.5 L1201.9,736.5 L1205.7,735.9 L1210.0,736.5 L1212.7,735.1 L1214.8,733.7 L1217.6,732.6 L1222.8,729.5 L1225.4,730.1 L1228.6,731.2 L1231.3,732.7 L1236.5,735.2 L1240.6,735.3 L1244.3,735.3 L1248.8,734.8 L1253.2,734.2 L1256.6,733.1 L1259.4,731.9 L1264.0,731.7 L1267.0,730.8 L1270.3,731.6 L1272.4,732.9 L1275.3,734.2 L1279.8,734.0 L1282.6,735.1 L1287.5,736.1 L1292.6,736.5 L1296.9,736.2 L1300.1,734.9 L1302.9,733.6 L1306.6,733.3 L1310.3,733.9 L1314.5,734.3 L1318.4,733.6 L1322.1,733.6 L1325.7,734.0 L1329.5,734.5 L1333.2,733.7 L1337.7,733.1 L1341.8,732.9 L1346.5,732.9 L1350.3,732.5 L1354.0,732.2 L1355.1,730.2 L1355.3,728.5 L1357.9,729.6 L1358.6,731.5 L1360.0,733.2 L1361.7,734.5 L1365.1,735.3 L1369.8,735.0 L1375.2,734.9 L1378.9,734.7 L1384.3,734.7 L1388.1,734.6 L1393.5,734.8 L1398.1,735.1 L1401.0,736.4 L1400.2,737.9 L1402.9,739.1 L1407.3,740.1 L1411.9,741.1 L1417.2,741.9 L1422.8,742.5 L1427.0,743.2 L1431.6,743.2 L1434.3,741.9 L1437.9,743.0 L1441.0,744.3 L1444.7,745.2 L1449.7,745.6 L1454.4,746.1 L1456.4,747.7 L1461.1,748.7 L1464.2,750.2 L1468.8,750.8 L1473.6,750.7 L1478.0,751.0 L1482.9,750.9 L1487.8,751.2 L1492.4,751.8 L1496.7,752.7 L1501.0,753.5 L1503.9,754.8 L1503.4,756.4 L1501.2,757.8 L1499.3,759.7 L1497.9,761.1 L1496.0,762.8 L1490.6,763.5 L1488.1,764.9 L1482.8,765.8 L1481.0,767.4 L1478.2,768.9 L1475.2,770.2 L1473.5,771.9 L1472.4,773.4 L1472.0,775.3 L1472.1,776.8 L1474.5,778.4 L1475.3,780.0 L1477.3,781.4 L1484.9,782.0 L1486.5,783.8 L1479.1,784.4 L1472.9,785.3 L1465.0,785.4 L1461.6,787.8 L1460.9,789.7 L1459.1,791.2 L1456.9,792.8 L1462.4,794.1 L1464.5,795.8 L1468.0,797.4 L1473.0,798.7 L1478.7,800.0 L1484.9,801.3 L1494.3,802.6 L1496.4,804.6 L1508.3,805.5 L1509.1,805.8 L1512.1,807.0 L1523.5,806.0 L1532.9,807.3 L1540.0,808.3 L1540.0,830.0 M60.0,830.0 L60.0,808.3 L60.2,808.3 L63.9,805.9 L71.3,807.2 L71.8,807.1 L72.9,806.7 L74.3,806.3 L75.5,805.9 L76.1,805.7 L76.7,805.8 L77.1,805.8 L83.1,807.5 L88.3,805.8 L89.2,805.6 L101.3,804.9 L105.2,805.8 L107.2,806.3 L113.4,807.7 L125.0,808.7 L134.3,810.0 L150.2,811.0 L162.0,809.9 L179.5,810.7 L189.4,811.9 L200.2,810.7 L211.7,809.6 L212.6,807.7 L196.4,807.5 L183.1,806.6 L179.6,804.9 L168.6,804.1 L169.3,802.2 L170.8,800.5 L172.4,799.0 L171.6,797.3 L164.7,796.2 L161.6,794.7 L155.2,793.4 L165.2,793.7 L174.7,793.0 L180.7,794.4 L188.0,793.2 L194.8,791.6 L198.1,790.3 L196.6,788.6 L191.3,787.5 L185.3,786.3 L176.8,786.0 L169.4,785.4 L161.4,785.0 L158.8,783.5 L153.5,782.2 L150.2,780.8 L148.9,776.1 L151.0,776.5 L154.7,777.8 L161.4,777.4 L167.9,776.8 L171.3,778.6 L177.9,778.2 L183.3,777.3 L188.5,776.2 L193.1,774.8 L199.3,774.4 L199.2,772.9 L197.7,771.3 L198.9,769.9 L204.3,769.2 L206.7,770.5 L213.0,769.7 L217.7,768.7 L223.6,768.6 L229.1,768.2 L234.7,767.2 L239.1,766.4 L244.1,765.5 L247.3,765.7 L250.2,766.0 L256.3,765.5 L261.8,766.2 L267.4,766.1 L272.8,765.5 L278.3,765.9 L284.5,766.4 L290.2,766.2 L296.1,766.3 L302.3,766.4 L307.9,766.2 L312.1,765.0 L317.1,764.3 L322.2,765.2 L327.1,764.5 L331.6,763.0 L334.2,764.3 L335.7,765.8 L338.3,767.2 L342.6,765.9 L347.5,767.5 L353.1,768.0 L357.8,769.1 L363.6,768.9 L368.8,768.1 L375.0,768.3 L380.6,768.9 L386.2,769.6 L388.4,767.8 L385.8,766.4 L383.7,765.0 L378.4,764.7 L376.1,763.1 L375.2,761.6 L373.8,758.5 L376.9,759.1 L382.3,759.3 L387.6,759.1 L392.4,759.7 L396.6,761.0 L398.4,762.4 L403.9,762.6 L409.3,762.1 L414.9,761.3 L420.0,760.8 L424.2,761.8 L429.6,761.4 L433.2,758.3 L436.5,760.1 L441.2,760.9 L446.4,760.5 L449.8,762.1 L455.2,762.2 L460.2,762.7 L465.1,763.6 L468.3,762.1 L469.9,760.6 L474.0,762.2 L479.6,761.8 L483.8,762.7 L486.6,764.1 L492.1,763.7 L496.4,762.8 L500.6,761.8 L505.6,761.2 L511.4,760.7 L516.6,760.1 L520.6,759.3 L523.0,758.0 L524.0,756.2 L523.5,754.5 L522.2,752.9 L520.8,751.3 L519.5,749.7 L518.4,748.2 L518.2,746.6 L518.6,745.0 L520.5,743.5 L522.2,741.8 L522.8,740.2 L522.0,738.4 L521.5,736.8 L523.5,734.9 L525.8,733.7 L528.4,732.2 L531.3,730.9 L534.6,729.7 L536.2,727.9 L538.4,726.8 L541.0,725.8 L544.9,725.5 L547.5,724.2 L550.4,723.4 L553.8,722.9 L556.8,721.9 L559.1,720.6 L562.3,720.1 L564.7,721.2 L563.2,722.5 L559.0,723.7 Z M521.5,681.4 L526.8,683.9 L532.6,684.9 L530.7,686.9 L526.8,687.1 L524.7,685.7 L523.4,687.3 L519.8,688.6 L515.4,688.2 L512.4,686.9 L508.1,686.3 L502.9,684.0 L498.7,681.8 L493.1,677.2 L496.4,678.1 L502.2,680.8 L507.7,682.3 L509.8,680.4 L511.1,677.6 L514.9,675.9 L517.8,676.4 L517.8,676.4 L519.4,678.3 L521.5,681.4 Z M559.3,670.1 L562.6,671.9 L561.3,673.4 L555.8,674.6 L554.0,673.2 L550.5,675.0 L548.4,673.2 L553.3,670.7 L556.8,671.7 L559.3,670.1 Z M1088.9,664.4 L1082.6,664.6 L1082.5,662.4 L1083.1,660.7 L1083.4,659.9 L1086.1,661.2 L1089.9,661.7 L1090.1,662.5 L1088.9,664.4 Z M1397.7,627.7 L1401.7,629.1 L1404.0,628.6 L1407.2,627.8 L1409.6,628.0 L1409.9,632.9 L1408.5,634.3 L1408.1,637.6 L1406.7,636.5 L1403.8,639.4 L1402.9,639.2 L1400.4,639.0 L1397.9,635.5 L1397.3,632.8 L1395.0,629.2 L1395.1,627.3 L1397.7,627.7 Z M1511.3,628.2 L1512.2,629.9 L1515.2,628.3 L1516.4,630.0 L1516.4,631.7 L1514.8,633.6 L1512.1,636.7 L1510.0,638.3 L1511.6,640.3 L1508.4,640.3 L1504.9,641.9 L1503.8,644.6 L1501.4,648.7 L1498.2,650.6 L1496.1,651.7 L1492.4,651.7 L1489.7,650.3 L1485.2,650.0 L1484.5,648.5 L1486.7,645.5 L1491.9,641.4 L1494.6,640.6 L1497.5,639.1 L1501.0,636.9 L1503.5,634.8 L1505.3,631.7 L1506.9,630.7 L1507.5,628.4 L1510.4,626.5 L1511.3,628.2 Z M1517.8,608.6 L1520.8,613.0 L1520.9,610.2 L1522.8,611.3 L1523.4,614.4 L1526.7,615.7 L1529.5,616.1 L1531.8,614.5 L1533.9,615.0 L1532.9,618.6 L1531.7,621.0 L1528.5,620.9 L1527.4,622.2 L1527.8,624.0 L1527.2,624.7 L1525.6,626.9 L1523.6,629.7 L1520.4,631.4 L1519.7,630.3 L1518.0,629.7 L1520.4,626.3 L1519.0,624.1 L1514.6,622.4 L1514.7,620.9 L1517.7,619.5 L1518.4,616.3 L1518.2,613.7 L1516.5,610.9 L1516.6,610.2 L1514.7,608.5 L1511.4,604.9 L1509.7,602.0 L1511.3,601.6 L1513.5,603.9 L1516.7,605.0 L1517.8,608.6 Z M1487.0,551.1 L1485.5,552.1 L1483.2,551.0 L1480.3,549.1 L1477.6,546.9 L1474.9,544.1 L1474.3,542.7 L1476.1,542.7 L1478.4,544.1 L1480.2,545.5 L1481.5,546.7 L1484.9,549.2 L1487.0,551.1 Z M1533.3,531.3 L1534.7,532.5 L1534.1,534.6 L1531.5,535.2 L1529.2,534.7 L1528.8,532.9 L1530.4,531.5 L1532.3,532.0 L1533.3,531.3 Z M1537.4,529.1 L1534.8,529.9 L1534.2,528.4 L1536.3,527.6 L1537.6,527.3 L1540.0,526.1 L1540.0,528.1 L1537.4,529.1 Z M60.3,527.8 L60.0,528.1 L60.0,526.1 L60.8,525.9 L60.3,527.8 Z M1490.0,527.7 L1488.7,528.2 L1487.3,526.4 L1487.4,525.3 L1490.0,527.7 Z M1487.0,521.4 L1487.7,524.7 L1486.6,524.2 L1485.7,524.4 L1485.1,523.3 L1485.0,520.1 L1487.0,521.4 Z M1005.8,515.7 L1006.4,520.7 L1007.5,522.6 L1007.1,524.6 L1006.4,525.8 L1005.0,523.4 L1004.2,524.6 L1005.0,527.6 L1004.6,529.4 L1003.5,530.3 L1003.2,533.8 L1001.6,538.6 L999.6,544.3 L997.0,552.1 L995.5,557.8 L993.6,562.5 L990.3,563.5 L986.7,565.3 L984.3,564.2 L981.1,562.7 L979.9,560.6 L979.6,556.9 L978.2,553.6 L977.8,550.7 L978.6,547.7 L980.5,547.0 L980.5,545.6 L982.4,542.5 L982.8,539.9 L981.8,538.0 L981.1,535.4 L980.7,531.6 L982.2,529.3 L982.7,526.7 L984.8,526.5 L987.1,525.7 L988.6,524.9 L990.4,524.9 L992.7,522.5 L996.1,520.0 L997.4,517.9 L996.8,516.2 L998.5,516.7 L1000.8,513.8 L1000.9,511.3 L1002.2,509.5 L1003.7,511.3 L1004.8,513.0 L1005.8,515.7 Z M1390.2,516.6 L1391.7,519.8 L1394.3,518.3 L1395.7,520.0 L1397.7,521.6 L1397.2,523.4 L1398.1,527.0 L1398.7,529.0 L1399.8,529.5 L1400.9,533.0 L1400.5,535.2 L1401.8,537.9 L1406.3,540.1 L1409.2,542.0 L1411.9,543.8 L1411.4,544.8 L1413.7,547.4 L1415.3,551.9 L1417.0,550.9 L1418.7,552.7 L1419.7,552.1 L1420.4,556.5 L1423.3,559.0 L1425.2,560.5 L1428.4,563.9 L1429.6,567.2 L1429.7,569.5 L1429.4,572.1 L1431.3,575.6 L1431.1,579.2 L1430.4,581.1 L1429.3,584.8 L1429.4,587.1 L1428.6,590.1 L1426.7,593.8 L1423.7,595.8 L1422.2,599.0 L1420.8,601.1 L1419.6,604.6 L1418.0,606.7 L1417.0,609.7 L1416.4,612.6 L1416.7,613.9 L1414.3,615.3 L1409.7,615.4 L1405.9,617.1 L1404.0,618.7 L1401.5,620.5 L1398.1,618.7 L1395.6,617.9 L1396.2,615.8 L1394.0,616.6 L1390.4,619.6 L1386.8,618.4 L1384.5,617.8 L1382.2,617.5 L1378.2,616.3 L1375.5,613.8 L1374.8,610.6 L1373.8,608.6 L1371.8,606.9 L1367.8,606.4 L1369.2,604.4 L1368.2,601.4 L1366.2,604.2 L1362.5,605.0 L1364.7,602.7 L1365.3,600.3 L1366.9,598.3 L1366.6,595.3 L1363.2,598.8 L1360.6,600.2 L1359.1,603.4 L1355.9,601.7 L1356.0,599.6 L1353.4,596.6 L1351.2,595.0 L1352.0,594.1 L1346.7,591.6 L1343.9,591.5 L1339.9,589.5 L1332.5,589.9 L1327.2,591.3 L1322.5,592.7 L1318.6,592.4 L1314.3,594.6 L1310.7,595.5 L1309.9,597.7 L1308.4,599.3 L1304.9,599.4 L1302.3,599.8 L1298.7,599.0 L1295.7,599.5 L1292.9,599.7 L1290.5,601.9 L1289.3,601.7 L1287.2,602.8 L1285.2,604.2 L1282.2,604.0 L1279.5,604.0 L1275.1,601.4 L1272.9,600.6 L1273.0,598.2 L1275.0,597.7 L1275.7,596.7 L1275.6,595.3 L1276.1,592.4 L1275.6,590.0 L1273.4,585.8 L1272.8,583.5 L1272.9,581.1 L1271.3,578.4 L1271.2,577.2 L1269.4,575.6 L1268.9,572.4 L1266.5,569.1 L1265.9,567.4 L1267.8,569.1 L1266.4,565.3 L1268.4,566.5 L1269.6,568.1 L1269.6,566.0 L1267.5,562.8 L1267.1,561.5 L1266.2,560.2 L1266.6,557.9 L1267.5,556.9 L1268.0,554.8 L1267.6,552.4 L1269.3,549.4 L1269.6,552.6 L1271.3,549.7 L1274.7,548.4 L1276.7,546.6 L1279.8,545.1 L1281.7,544.8 L1282.8,545.3 L1286.1,543.8 L1288.5,543.3 L1289.2,542.4 L1290.3,542.0 L1292.5,542.1 L1296.9,540.9 L1299.1,539.1 L1300.1,536.9 L1302.5,534.8 L1302.7,533.2 L1302.8,530.9 L1305.7,527.4 L1307.5,531.0 L1309.2,530.2 L1307.7,528.2 L1309.0,526.2 L1310.8,527.1 L1311.3,524.0 L1313.6,522.0 L1314.6,520.4 L1316.6,519.7 L1316.7,518.5 L1318.5,519.0 L1318.6,518.0 L1320.4,517.4 L1322.4,516.8 L1325.4,518.7 L1327.7,521.1 L1330.3,521.2 L1332.9,521.5 L1332.0,519.3 L1334.0,516.0 L1335.8,514.9 L1335.2,513.9 L1337.0,511.5 L1339.5,510.1 L1341.6,510.6 L1345.0,509.8 L1345.0,507.7 L1341.9,506.3 L1344.1,505.8 L1346.9,506.8 L1349.0,508.5 L1352.5,509.5 L1353.7,509.1 L1356.2,510.4 L1358.6,509.2 L1360.2,509.5 L1361.1,508.7 L1363.0,510.8 L1361.9,513.0 L1360.4,514.6 L1359.0,514.8 L1359.4,516.4 L1358.2,518.5 L1356.8,520.5 L1357.1,521.7 L1360.3,523.9 L1363.5,525.2 L1365.6,526.7 L1368.6,529.1 L1369.7,529.1 L1371.9,530.1 L1372.5,531.4 L1376.4,532.8 L1379.2,531.4 L1380.0,529.2 L1380.8,527.4 L1381.3,525.1 L1382.6,521.9 L1382.0,519.9 L1382.3,518.7 L1381.8,516.3 L1382.3,513.2 L1383.1,512.4 L1382.5,511.0 L1383.5,508.8 L1384.3,506.6 L1384.4,505.4 L1385.9,503.9 L1387.1,505.9 L1387.3,508.4 L1388.4,508.9 L1388.5,510.7 L1390.0,512.8 L1390.3,515.1 L1390.2,516.6 Z M1466.5,503.1 L1467.6,504.5 L1464.8,504.5 L1463.2,502.0 L1465.7,502.9 L1466.5,503.1 Z M1296.3,502.1 L1294.5,502.2 L1289.1,499.3 L1292.9,498.5 L1295.1,499.7 L1296.5,501.0 L1296.3,502.1 Z M1461.3,500.6 L1459.7,500.7 L1457.2,500.3 L1456.3,499.6 L1456.6,498.0 L1459.3,498.6 L1460.6,499.5 L1461.3,500.6 Z M1464.7,499.5 L1464.1,500.2 L1461.0,496.7 L1460.2,494.2 L1461.6,494.2 L1463.0,497.5 L1464.7,499.5 Z M1311.6,501.7 L1308.1,502.6 L1307.6,502.1 L1307.9,500.7 L1309.7,498.2 L1313.8,496.6 L1314.2,495.6 L1317.8,494.7 L1320.7,494.5 L1321.9,494.0 L1323.5,494.5 L1322.0,495.6 L1317.7,497.4 L1314.3,498.6 L1311.6,501.7 Z M1284.7,493.3 L1286.2,494.4 L1288.7,494.0 L1289.7,495.8 L1285.0,496.6 L1282.1,497.2 L1279.9,497.1 L1281.3,494.8 L1283.6,494.7 L1284.7,493.3 Z M1305.3,493.3 L1304.7,495.6 L1298.5,496.7 L1293.0,496.2 L1293.0,494.7 L1296.3,493.9 L1298.8,495.1 L1301.6,494.8 L1305.3,493.3 Z M1457.3,494.3 L1457.4,495.1 L1454.2,493.4 L1452.0,491.9 L1450.4,490.5 L1451.0,490.1 L1452.9,491.1 L1456.3,493.0 L1457.3,494.3 Z M1447.7,490.2 L1446.8,490.4 L1445.0,489.5 L1443.4,487.8 L1443.6,487.1 L1446.0,488.9 L1447.7,490.2 Z M1246.6,487.9 L1254.4,488.3 L1255.3,486.6 L1263.0,488.6 L1264.5,491.2 L1270.6,492.0 L1275.7,494.4 L1271.0,496.0 L1266.5,494.3 L1262.7,494.4 L1258.5,494.1 L1254.6,493.4 L1249.9,491.8 L1246.9,491.4 L1245.1,491.9 L1237.6,490.2 L1236.9,488.5 L1233.2,488.2 L1236.0,484.2 L1241.0,484.5 L1244.3,486.1 L1246.0,486.4 L1246.6,487.9 Z M1353.9,485.5 L1351.8,488.3 L1351.4,485.3 L1352.1,483.8 L1352.9,482.4 L1353.9,483.6 L1353.9,485.5 Z M1440.8,488.0 L1439.7,488.4 L1437.9,486.9 L1436.1,484.3 L1435.2,481.1 L1435.8,480.7 L1436.2,482.0 L1437.5,482.9 L1439.5,485.5 L1441.4,486.9 L1440.8,488.0 Z M1424.8,482.5 L1422.7,482.9 L1422.0,484.0 L1419.8,485.0 L1417.7,486.0 L1415.5,486.0 L1412.1,484.8 L1409.8,483.6 L1410.1,482.4 L1413.8,483.0 L1416.0,482.6 L1416.7,480.7 L1417.2,480.6 L1417.6,482.7 L1420.0,482.4 L1421.1,481.0 L1423.4,479.6 L1423.0,477.1 L1425.5,477.1 L1426.3,477.7 L1426.2,480.0 L1424.8,482.5 Z M1323.1,474.2 L1321.6,475.6 L1318.8,474.8 L1318.0,473.1 L1322.1,472.9 L1323.1,474.2 Z M1336.4,472.7 L1337.9,475.9 L1334.4,474.2 L1331.0,473.8 L1328.7,474.1 L1325.8,474.0 L1326.8,471.7 L1331.9,471.5 L1336.4,472.7 Z M1429.6,478.5 L1428.3,479.6 L1427.5,477.2 L1426.6,475.6 L1424.7,474.2 L1422.4,472.5 L1419.4,471.3 L1420.5,470.3 L1422.8,471.4 L1424.1,472.3 L1425.9,473.3 L1427.5,475.0 L1429.1,476.4 L1429.6,478.5 Z M1351.5,464.7 L1352.6,471.4 L1356.9,473.8 L1360.3,469.5 L1365.0,467.0 L1368.7,467.0 L1372.2,468.4 L1375.3,469.9 L1379.7,470.7 L1386.8,473.5 L1394.4,475.9 L1397.2,478.0 L1399.5,480.0 L1400.1,482.5 L1407.0,485.0 L1408.0,487.2 L1404.2,487.6 L1405.1,490.4 L1408.8,493.1 L1411.5,497.4 L1413.8,497.3 L1413.7,499.1 L1416.8,499.8 L1415.6,500.6 L1420.0,502.3 L1419.5,503.5 L1416.8,503.8 L1415.8,502.7 L1412.2,502.3 L1408.1,501.6 L1404.9,499.0 L1402.6,496.8 L1400.4,493.2 L1395.1,491.4 L1391.6,492.5 L1389.1,493.9 L1389.6,496.9 L1386.4,498.3 L1384.1,497.7 L1379.8,497.5 L1376.1,494.1 L1372.0,493.3 L1371.0,494.5 L1365.7,494.6 L1367.5,491.2 L1370.1,490.1 L1369.0,485.6 L1367.0,482.2 L1359.1,478.7 L1355.7,478.3 L1349.5,474.5 L1348.3,476.5 L1346.7,476.9 L1345.8,475.4 L1345.8,473.6 L1342.6,471.6 L1347.1,470.1 L1350.0,470.2 L1349.6,469.1 L1343.6,469.1 L1342.0,466.6 L1338.3,465.9 L1336.6,463.9 L1342.1,462.9 L1344.2,461.5 L1350.8,463.2 L1351.5,464.7 Z M1314.9,454.2 L1311.6,458.2 L1308.5,459.0 L1304.5,458.2 L1297.7,458.4 L1294.1,459.0 L1293.5,462.1 L1297.2,465.8 L1299.4,463.9 L1307.1,462.5 L1306.7,464.4 L1304.9,463.8 L1303.2,466.2 L1299.5,467.8 L1303.4,473.1 L1302.7,474.5 L1306.4,479.3 L1306.3,482.0 L1304.1,483.2 L1302.5,481.7 L1304.5,478.4 L1300.5,479.9 L1299.5,478.8 L1300.0,477.2 L1297.0,474.8 L1297.3,470.8 L1294.6,472.1 L1294.9,476.8 L1295.1,482.7 L1292.5,483.3 L1290.7,482.1 L1291.9,478.3 L1291.3,474.4 L1289.5,474.3 L1288.3,471.5 L1290.0,468.8 L1290.6,465.6 L1292.6,459.4 L1293.5,457.7 L1297.0,454.6 L1300.2,455.8 L1305.4,456.4 L1310.1,456.2 L1314.2,453.2 L1314.9,454.2 Z M1329.1,455.3 L1328.8,458.9 L1326.7,458.5 L1326.1,461.0 L1327.8,463.2 L1326.6,463.7 L1325.0,461.1 L1323.8,455.8 L1324.6,452.6 L1325.9,451.1 L1326.2,453.3 L1328.7,453.7 L1329.1,455.3 Z M1235.0,484.1 L1230.5,484.1 L1227.0,480.7 L1221.7,477.3 L1220.0,474.9 L1216.9,471.5 L1214.8,468.4 L1211.7,462.7 L1208.1,459.2 L1206.9,455.7 L1205.4,452.5 L1201.7,449.9 L1199.5,446.4 L1196.4,444.1 L1192.1,439.6 L1191.8,437.5 L1194.4,437.6 L1200.8,438.4 L1204.4,442.5 L1207.6,445.2 L1209.9,446.9 L1213.7,451.4 L1217.9,451.4 L1221.4,454.2 L1223.8,457.7 L1226.9,459.6 L1225.2,462.9 L1227.6,464.4 L1229.1,464.5 L1229.8,467.3 L1231.2,469.6 L1234.2,470.0 L1236.2,472.6 L1235.2,477.7 L1235.0,484.1 Z M1284.6,452.5 L1289.2,456.3 L1284.3,456.8 L1283.0,459.6 L1283.1,463.3 L1279.2,466.1 L1279.1,470.2 L1277.5,476.5 L1276.9,475.0 L1272.2,476.9 L1270.6,474.4 L1267.7,474.1 L1265.6,472.8 L1260.7,474.3 L1259.2,472.3 L1256.5,472.5 L1253.1,472.1 L1252.5,466.5 L1250.5,465.4 L1248.5,461.9 L1247.9,458.3 L1248.4,454.5 L1250.8,451.8 L1253.9,453.2 L1257.0,452.4 L1257.9,448.9 L1259.6,448.1 L1264.5,447.2 L1267.5,444.0 L1269.5,441.4 L1271.1,439.9 L1274.6,437.6 L1277.8,434.7 L1279.9,431.5 L1281.5,431.5 L1283.6,433.6 L1283.8,435.4 L1286.5,436.5 L1290.0,437.8 L1289.7,439.4 L1286.9,439.6 L1287.7,441.6 L1284.6,443.0 L1282.3,446.7 L1285.3,450.6 L1284.6,452.5 Z M1319.5,425.4 L1320.0,428.1 L1320.2,430.4 L1318.8,434.2 L1317.3,430.0 L1315.4,432.1 L1316.7,435.1 L1315.5,437.1 L1310.7,434.7 L1309.5,431.7 L1310.8,429.7 L1308.2,427.8 L1306.9,429.5 L1304.9,429.3 L1301.9,431.6 L1301.2,430.4 L1302.8,427.0 L1305.4,425.8 L1307.7,424.3 L1309.1,426.1 L1312.3,425.0 L1312.9,423.2 L1315.8,423.1 L1315.6,419.9 L1318.9,421.8 L1319.3,423.9 L1319.5,425.4 Z M1133.9,434.5 L1130.3,435.5 L1128.4,432.2 L1127.6,426.3 L1129.5,419.6 L1132.3,421.9 L1134.3,424.8 L1136.2,429.1 L1135.6,433.4 L1133.9,434.5 Z M549.5,418.4 L546.1,418.9 L545.3,418.5 L546.5,417.4 L546.4,415.8 L548.8,415.2 L549.7,415.4 L549.5,418.4 Z M1309.7,417.7 L1308.2,419.1 L1306.9,421.7 L1305.6,422.9 L1303.1,420.1 L1304.0,419.0 L1305.0,417.8 L1305.5,415.3 L1307.7,415.0 L1307.1,417.8 L1310.1,413.8 L1309.7,417.7 Z M1287.2,421.7 L1281.7,425.6 L1283.7,422.7 L1286.7,420.2 L1289.2,417.3 L1291.3,413.3 L1292.1,416.6 L1289.3,418.9 L1287.2,421.7 Z M1301.1,411.1 L1303.5,412.4 L1306.2,412.4 L1306.1,414.1 L1304.2,415.8 L1301.6,417.1 L1301.4,415.2 L1301.7,413.1 L1301.1,411.1 Z M1316.0,410.0 L1317.1,414.6 L1313.9,413.5 L1314.0,414.9 L1315.0,417.4 L1313.1,418.3 L1312.9,415.4 L1311.7,415.2 L1311.0,412.7 L1313.4,413.1 L1313.4,411.5 L1310.9,408.4 L1314.8,408.5 L1316.0,410.0 Z M1299.6,406.3 L1298.5,409.8 L1296.8,407.8 L1294.7,404.6 L1298.2,404.8 L1299.6,406.3 Z M1298.8,383.9 L1301.3,385.1 L1302.6,384.0 L1302.9,385.1 L1302.3,386.8 L1303.7,389.7 L1302.6,393.1 L1300.2,394.5 L1299.5,397.8 L1300.4,401.1 L1302.6,401.5 L1304.4,401.1 L1309.6,403.3 L1309.2,405.6 L1310.5,406.6 L1310.1,408.5 L1306.9,406.4 L1305.4,404.3 L1304.3,405.8 L1301.7,403.3 L1298.0,403.9 L1295.9,403.0 L1296.1,401.3 L1297.4,400.3 L1296.2,399.3 L1295.7,400.8 L1293.6,398.5 L1293.0,396.7 L1292.9,392.7 L1294.5,394.1 L1294.9,387.6 L1296.3,383.9 L1298.8,383.9 Z M530.3,385.1 L529.3,386.1 L526.2,386.1 L523.8,386.2 L523.6,384.5 L524.1,383.9 L527.5,383.9 L529.6,384.2 L530.3,385.1 Z M483.8,386.5 L482.6,387.2 L480.3,386.6 L477.9,385.1 L478.4,384.1 L480.2,383.8 L481.1,384.0 L483.9,384.4 L486.1,385.3 L486.7,386.5 L483.8,386.5 Z M501.6,378.3 L505.2,379.0 L505.7,378.3 L508.9,378.3 L511.3,379.3 L512.4,379.2 L513.2,380.7 L515.4,380.6 L515.3,381.8 L517.1,382.0 L519.1,383.5 L517.6,385.2 L515.7,384.3 L513.8,384.4 L512.4,384.2 L511.7,385.0 L510.1,385.2 L509.5,384.2 L508.1,384.8 L506.5,387.7 L505.4,387.0 L505.2,385.8 L502.5,385.1 L500.5,385.4 L498.0,385.1 L496.1,385.9 L493.9,384.6 L494.3,383.3 L498.0,383.8 L501.1,384.2 L502.6,383.3 L500.7,381.5 L500.8,379.9 L498.2,379.3 L499.1,378.1 L501.6,378.3 Z M1253.6,383.2 L1250.1,385.2 L1246.7,383.9 L1246.6,380.4 L1248.6,378.5 L1253.1,377.4 L1255.5,377.5 L1256.4,379.0 L1254.6,380.8 L1253.6,383.2 Z M160.5,381.5 L159.9,382.2 L158.9,381.6 L159.0,380.5 L158.4,379.0 L158.6,378.5 L159.3,377.9 L159.0,377.1 L159.2,376.7 L159.6,376.8 L161.1,377.4 L161.9,377.8 L162.5,378.4 L163.6,379.8 L163.5,380.0 L161.9,380.9 L160.5,381.5 Z M158.3,375.1 L157.0,375.4 L156.3,374.6 L155.8,374.2 L155.7,374.0 L156.1,373.6 L157.6,374.0 L158.7,374.6 L158.3,375.1 Z M155.5,372.9 L155.4,373.4 L153.2,373.3 L153.5,372.8 L155.5,372.9 Z M151.9,372.3 L151.6,372.6 L151.4,372.5 L149.9,372.4 L149.4,371.4 L149.2,371.3 L150.3,370.7 L150.7,371.0 L151.9,372.3 Z M144.9,369.6 L144.4,370.0 L143.0,369.3 L143.3,369.0 L143.9,368.6 L144.8,368.7 L144.9,369.6 Z M472.4,366.4 L474.1,367.9 L477.9,367.4 L479.4,368.4 L482.8,371.0 L485.4,372.8 L486.8,372.8 L489.2,373.6 L488.9,374.8 L491.9,374.9 L495.0,376.6 L494.6,377.6 L491.8,378.1 L489.1,378.3 L486.2,378.0 L480.3,378.4 L483.1,376.1 L481.4,375.0 L478.8,374.7 L477.3,373.5 L476.4,371.2 L474.1,371.4 L470.2,370.3 L469.0,369.4 L463.6,368.8 L462.2,368.0 L463.7,366.9 L459.7,366.7 L456.7,368.9 L455.0,368.9 L454.5,369.9 L452.4,370.4 L450.7,370.0 L452.8,368.7 L453.7,367.2 L455.6,366.3 L457.7,365.5 L460.8,365.1 L461.8,364.7 L465.3,365.0 L468.6,365.0 L472.4,366.4 Z M481.2,362.3 L480.2,362.5 L479.2,360.2 L477.7,359.0 L478.5,356.4 L479.8,356.5 L481.2,359.9 L481.2,362.3 Z M1298.2,366.3 L1296.4,369.7 L1294.2,366.2 L1293.8,363.2 L1296.2,359.1 L1299.5,356.0 L1301.4,357.2 L1300.6,359.7 L1298.2,366.3 Z M480.1,350.7 L475.6,351.4 L475.3,349.9 L477.2,349.5 L479.9,349.7 L480.1,350.7 Z M483.4,350.7 L482.7,353.6 L482.0,353.1 L482.0,350.9 L480.2,349.3 L480.2,348.8 L483.4,350.7 Z M1353.5,319.6 L1354.0,321.0 L1351.7,323.5 L1350.0,322.2 L1347.9,323.1 L1346.8,325.5 L1344.2,324.4 L1344.2,322.4 L1346.5,320.0 L1348.8,320.4 L1350.5,318.7 L1353.5,319.6 Z M942.1,313.4 L939.4,315.1 L939.7,315.9 L939.8,316.2 L935.6,317.9 L933.6,317.3 L932.6,315.7 L934.6,315.5 L934.9,315.5 L935.4,314.5 L938.4,314.6 L942.1,313.4 Z M897.4,313.2 L899.7,314.6 L902.9,314.4 L905.9,314.7 L905.8,315.4 L908.1,314.9 L907.6,316.1 L901.6,316.4 L901.7,315.8 L896.7,315.0 L897.4,313.2 Z M863.8,302.8 L862.3,306.1 L862.9,307.3 L862.1,309.5 L858.9,307.9 L856.8,307.5 L851.1,305.4 L851.7,303.3 L856.5,303.6 L860.7,303.2 L863.8,302.8 Z M837.9,290.6 L840.3,293.5 L839.8,298.9 L837.9,298.7 L836.2,300.1 L834.6,299.0 L834.5,294.0 L833.5,291.6 L835.8,291.9 L837.9,290.6 Z M1379.6,307.3 L1378.0,310.6 L1378.7,312.6 L1376.6,315.5 L1371.3,317.5 L1364.1,317.7 L1358.3,322.4 L1355.5,320.8 L1355.3,317.8 L1348.2,318.7 L1343.3,320.6 L1338.5,320.7 L1342.7,323.7 L1339.9,330.7 L1337.3,332.4 L1335.3,330.8 L1336.3,327.1 L1333.7,325.9 L1332.0,323.1 L1335.9,321.8 L1338.1,319.3 L1342.2,317.1 L1345.2,314.3 L1353.4,313.1 L1357.8,313.9 L1362.1,306.6 L1364.8,308.6 L1370.9,304.5 L1373.2,302.9 L1375.8,297.9 L1375.1,293.2 L1376.8,290.6 L1381.2,289.9 L1383.4,295.6 L1383.3,298.9 L1379.5,303.1 L1379.6,307.3 Z M839.3,286.7 L837.9,289.9 L836.1,289.0 L835.1,286.3 L836.0,284.8 L838.6,283.2 L839.3,286.7 Z M1391.6,278.4 L1394.5,279.3 L1397.4,277.5 L1398.3,282.1 L1392.2,283.3 L1388.6,287.4 L1382.2,284.5 L1379.9,289.0 L1375.4,289.1 L1374.8,285.0 L1376.8,281.9 L1381.2,281.6 L1382.4,275.9 L1383.6,272.7 L1388.5,277.0 L1391.6,278.4 Z M538.3,268.6 L541.2,269.2 L545.1,269.1 L543.0,270.8 L541.5,271.0 L536.3,269.3 L535.3,267.9 L536.8,266.6 L538.3,268.6 Z M545.9,258.1 L543.9,258.2 L538.6,256.9 L534.8,255.0 L536.2,254.6 L541.6,255.7 L545.8,257.4 L545.9,258.1 Z M292.2,260.6 L290.2,261.1 L283.4,259.3 L282.2,257.8 L278.5,256.4 L277.8,255.2 L273.5,254.5 L272.0,252.2 L272.3,251.3 L276.6,252.2 L279.1,252.8 L283.0,253.2 L284.4,254.6 L286.4,256.6 L290.5,258.3 L292.2,260.6 Z M569.2,251.6 L566.5,255.2 L569.2,253.8 L572.0,254.7 L570.5,256.1 L574.2,257.3 L576.1,256.3 L580.2,257.5 L578.9,260.5 L581.8,259.8 L582.3,262.0 L583.6,264.6 L581.8,268.2 L580.0,268.3 L577.3,267.6 L578.2,264.2 L577.0,263.7 L572.2,267.3 L569.8,267.1 L572.7,265.2 L568.7,264.2 L564.3,264.4 L556.4,264.3 L555.7,263.1 L558.3,261.6 L556.5,260.5 L559.9,258.0 L564.2,251.5 L566.7,249.2 L570.3,247.7 L572.2,247.9 L571.4,249.0 L569.2,251.6 Z M254.4,237.8 L254.4,237.8 L254.4,237.8 L254.4,237.8 L258.4,237.5 L257.1,242.2 L260.7,245.5 L259.1,245.5 L256.6,243.6 L255.1,241.7 L253.0,240.4 L252.2,238.6 L252.5,237.3 L254.4,237.8 Z M1390.6,251.4 L1394.7,258.7 L1388.6,257.3 L1386.1,263.2 L1390.1,267.4 L1390.0,270.3 L1386.9,267.8 L1384.2,271.0 L1383.4,267.6 L1383.9,263.6 L1383.4,259.1 L1384.3,256.0 L1384.5,250.5 L1382.1,246.5 L1382.5,240.9 L1386.3,239.0 L1384.6,237.1 L1386.5,236.5 L1387.5,239.2 L1389.0,243.2 L1388.9,247.2 L1390.6,251.4 Z M772.1,245.2 L764.8,247.6 L759.0,247.0 L762.3,242.7 L760.2,238.5 L765.8,235.3 L768.9,233.3 L772.3,233.2 L776.7,235.7 L774.5,238.5 L775.2,241.5 L772.1,245.2 Z M852.2,231.4 L849.7,234.7 L845.4,232.4 L844.8,230.7 L850.9,229.3 L852.2,231.4 Z M171.0,225.2 L166.9,226.8 L164.8,225.7 L164.1,223.8 L167.9,222.3 L170.1,221.7 L172.8,222.0 L174.5,223.2 L171.0,225.2 Z M787.6,218.9 L783.3,223.4 L787.4,222.8 L791.9,222.9 L790.9,226.2 L787.2,229.9 L791.4,230.1 L795.4,235.4 L798.2,236.1 L800.8,240.8 L801.9,242.4 L806.9,243.2 L806.4,245.8 L804.3,247.0 L806.0,249.1 L802.3,251.3 L796.8,251.3 L789.8,252.4 L787.8,251.6 L785.1,253.5 L781.3,253.0 L778.4,254.6 L776.3,253.8 L782.3,249.5 L786.0,248.6 L779.5,247.9 L778.3,246.3 L782.6,245.0 L780.4,242.8 L781.2,240.1 L787.3,240.4 L787.9,238.1 L785.1,235.5 L780.1,234.7 L779.1,233.6 L780.6,231.8 L779.2,230.7 L777.0,232.6 L776.8,228.6 L774.7,226.6 L776.2,222.3 L779.4,219.0 L782.7,219.3 L787.6,218.9 Z M119.3,213.7 L116.8,214.3 L114.1,213.6 L111.6,212.5 L115.6,211.8 L118.9,212.1 L119.3,213.7 Z M474.1,204.5 L472.5,206.6 L470.7,206.3 L469.6,205.0 L469.8,204.8 L471.4,203.5 L473.1,203.6 L474.1,204.5 Z M463.3,202.2 L458.5,204.5 L455.6,204.4 L454.7,203.2 L457.7,201.4 L463.4,201.4 L463.3,202.2 Z M94.0,197.8 L96.5,198.6 L99.1,198.1 L102.4,199.2 L106.5,199.8 L106.2,200.2 L103.0,201.1 L99.9,200.2 L98.4,199.5 L94.7,199.7 L93.7,199.3 L94.0,197.8 Z M449.9,190.1 L450.7,191.9 L452.8,191.2 L455.1,192.3 L459.7,193.7 L464.4,195.0 L464.7,197.0 L467.8,196.7 L470.7,198.0 L467.0,199.3 L460.6,198.3 L458.3,196.5 L454.3,198.7 L448.4,200.8 L447.0,198.4 L441.4,198.8 L445.0,196.7 L445.5,193.5 L446.9,189.7 L449.9,190.1 Z M740.4,186.8 L739.4,189.5 L744.0,192.3 L738.7,195.4 L726.8,198.2 L723.3,199.0 L717.9,198.4 L706.4,197.1 L710.5,195.2 L701.5,193.2 L708.8,192.4 L708.6,191.2 L700.0,190.3 L702.8,187.6 L709.0,187.0 L715.4,189.8 L721.7,187.5 L726.8,188.7 L733.5,186.5 L740.4,186.8 Z M488.1,183.9 L483.5,184.1 L482.5,182.1 L484.2,179.8 L488.0,179.3 L491.2,180.4 L491.2,182.2 L490.8,182.7 L488.1,183.9 Z M80.5,186.3 L83.3,187.3 L82.3,184.3 L93.5,184.9 L101.5,188.8 L97.4,190.6 L90.7,191.0 L90.6,195.0 L89.0,195.9 L85.1,195.7 L82.0,194.3 L76.5,193.1 L75.6,191.3 L71.4,190.6 L66.7,191.2 L64.5,189.7 L65.4,188.2 L60.5,189.2 L62.3,191.1 L60.0,192.9 L60.0,176.5 L70.1,179.6 L80.9,183.7 L80.5,186.3 Z M406.8,175.9 L404.2,177.3 L398.7,176.1 L395.3,176.5 L389.7,174.7 L393.3,173.4 L396.2,171.6 L400.6,172.8 L403.0,173.5 L404.3,174.3 L406.8,175.9 Z M1540.0,168.8 L1535.5,169.0 L1534.8,167.7 L1540.0,166.0 L1540.0,168.8 Z M65.4,168.6 L60.0,168.8 L60.0,166.0 L60.5,165.8 L64.0,165.8 L70.0,167.0 L69.6,167.6 L65.4,168.6 Z M427.8,174.3 L427.7,178.5 L433.2,175.3 L438.1,177.9 L436.9,181.0 L440.9,183.7 L445.2,180.8 L448.2,177.2 L448.4,172.7 L454.3,173.0 L460.3,173.6 L465.8,175.7 L466.1,177.7 L463.0,179.9 L465.9,182.1 L465.4,184.1 L457.4,187.0 L451.6,187.6 L447.4,186.4 L446.2,188.4 L442.2,191.9 L441.0,193.7 L436.2,196.5 L430.4,196.8 L427.1,198.5 L426.8,201.2 L422.1,201.7 L417.0,205.0 L412.6,209.6 L411.0,212.9 L410.7,217.7 L416.8,218.3 L418.6,222.2 L420.6,225.3 L426.3,224.5 L433.9,226.3 L438.1,227.8 L441.0,229.8 L446.2,230.9 L450.5,232.6 L457.3,232.9 L461.8,233.3 L461.1,236.8 L462.4,241.0 L465.4,245.6 L471.5,249.5 L474.6,248.1 L476.9,243.9 L474.7,237.4 L471.8,235.3 L478.4,233.3 L483.1,230.4 L485.3,227.6 L485.0,224.8 L482.2,221.3 L477.2,218.2 L482.1,213.9 L480.3,210.2 L478.9,203.8 L481.8,202.8 L488.8,204.0 L493.0,204.4 L496.4,203.3 L500.3,204.7 L505.3,207.1 L506.6,208.7 L513.9,209.0 L513.8,212.4 L515.1,217.6 L518.9,218.3 L521.9,220.7 L527.8,218.4 L531.8,213.9 L534.5,212.0 L537.7,215.6 L543.0,220.9 L547.6,225.8 L545.9,228.4 L551.4,230.7 L555.1,233.0 L561.7,234.1 L564.3,235.4 L565.9,238.9 L569.1,239.4 L570.8,241.0 L571.1,245.6 L568.1,247.2 L565.1,248.6 L558.4,250.1 L553.2,253.4 L546.2,254.1 L537.5,253.2 L531.3,253.2 L527.0,253.5 L523.6,256.5 L518.3,258.3 L512.4,263.7 L507.7,267.5 L511.2,266.8 L517.8,261.4 L526.4,258.0 L532.5,257.6 L536.2,259.6 L532.3,262.4 L533.6,266.8 L534.9,269.9 L540.3,272.0 L547.1,271.4 L551.2,266.7 L551.5,269.7 L554.1,271.2 L549.1,273.9 L540.0,276.4 L535.9,278.0 L531.3,281.0 L528.2,280.7 L528.0,277.2 L535.1,273.8 L528.6,273.9 L524.0,274.4 L524.7,275.8 L520.3,277.8 L516.1,279.2 L511.7,280.4 L509.4,283.1 L508.9,283.8 L508.8,286.0 L510.2,288.1 L511.9,288.2 L511.5,286.7 L512.7,287.7 L512.4,288.8 L509.6,289.5 L507.6,289.4 L504.6,290.1 L502.8,290.3 L500.4,290.5 L497.0,291.7 L503.0,291.0 L504.2,291.7 L498.5,293.0 L495.9,293.0 L496.0,292.5 L494.7,293.6 L495.9,293.8 L495.0,296.8 L492.1,299.9 L491.7,298.9 L490.8,298.6 L489.5,297.6 L490.4,299.8 L491.3,300.6 L491.4,302.1 L490.1,303.7 L487.8,307.0 L487.4,306.8 L488.7,304.0 L486.6,302.5 L486.1,299.0 L485.3,300.8 L486.2,303.4 L483.6,302.8 L486.3,304.1 L486.5,308.0 L487.7,308.3 L488.1,309.7 L488.7,313.8 L486.1,316.9 L481.8,318.1 L479.1,320.5 L477.1,320.8 L475.0,322.3 L474.4,323.7 L469.9,326.4 L467.6,328.3 L465.6,330.7 L465.0,333.7 L465.7,336.5 L467.1,340.0 L468.9,342.9 L468.9,344.7 L470.9,349.5 L470.7,352.3 L470.6,353.9 L469.5,356.4 L468.3,356.9 L466.3,356.4 L465.6,354.6 L464.1,353.6 L461.9,350.1 L460.0,347.0 L459.4,345.4 L460.2,342.6 L459.1,340.4 L455.9,336.9 L454.3,336.3 L450.1,338.2 L449.4,338.0 L447.4,336.0 L444.8,335.0 L440.2,335.5 L436.5,335.1 L433.4,335.4 L431.6,335.9 L432.4,337.1 L432.3,338.8 L433.2,339.6 L432.4,340.1 L430.9,339.5 L429.4,340.3 L426.4,340.2 L423.3,338.0 L419.7,338.5 L416.7,337.6 L414.2,337.8 L410.7,338.8 L407.0,341.9 L402.9,343.6 L400.6,345.6 L399.7,347.4 L399.7,350.3 L399.9,352.2 L400.6,353.6 L400.7,353.7 L400.6,353.7 L399.1,357.3 L398.3,360.2 L398.0,365.7 L397.6,367.7 L398.3,370.0 L399.6,372.0 L400.4,375.2 L403.2,378.2 L404.1,380.6 L405.7,382.6 L410.1,383.7 L411.8,385.4 L415.4,384.3 L418.5,383.8 L421.6,383.1 L424.2,382.4 L426.8,380.7 L427.8,378.3 L428.1,374.9 L428.9,373.7 L431.6,372.6 L436.0,371.6 L439.6,371.8 L442.1,371.4 L443.1,372.3 L443.0,374.3 L440.8,376.7 L439.8,379.2 L440.5,379.9 L439.9,381.7 L438.9,384.9 L437.8,383.9 L437.0,383.9 L437.0,384.5 L437.8,384.6 L437.7,385.7 L437.0,387.5 L437.4,388.1 L437.0,389.6 L437.2,390.0 L436.8,392.0 L436.0,393.1 L435.2,393.3 L434.4,394.7 L435.7,395.4 L436.1,394.8 L437.3,395.3 L437.7,395.5 L438.6,394.8 L439.8,394.7 L440.2,395.1 L440.8,394.9 L442.7,395.2 L444.6,395.1 L446.0,394.7 L446.4,394.2 L447.7,394.4 L448.7,394.7 L449.8,394.6 L450.6,394.2 L452.5,394.8 L453.2,394.9 L454.4,395.7 L455.6,396.6 L457.1,397.2 L458.2,398.4 L457.8,398.7 L457.6,399.7 L458.0,401.2 L457.1,402.6 L456.6,404.2 L456.5,406.0 L456.7,407.1 L456.8,408.9 L456.2,409.3 L455.8,411.1 L456.1,412.2 L455.3,413.2 L455.5,414.4 L456.1,415.0 L457.1,417.3 L458.7,418.9 L460.6,420.7 L462.1,422.1 L462.0,423.0 L463.7,423.2 L464.1,422.9 L465.2,423.9 L467.2,423.6 L469.0,422.5 L471.5,421.7 L472.9,420.5 L475.1,420.7 L475.0,421.1 L477.3,421.3 L479.1,422.0 L480.4,423.2 L482.0,424.4 L484.1,424.5 L487.2,421.6 L488.9,421.2 L488.9,419.8 L489.7,416.3 L492.0,414.4 L494.6,414.4 L495.0,413.5 L498.2,413.8 L501.4,411.8 L503.0,410.8 L505.0,408.9 L506.5,409.1 L507.5,410.2 L506.7,411.6 L506.6,412.6 L504.2,413.0 L505.6,414.9 L505.5,417.1 L503.7,419.4 L505.3,422.7 L507.0,422.4 L507.9,419.5 L506.7,418.0 L506.5,414.9 L511.6,413.2 L511.0,411.3 L512.5,410.0 L513.9,412.9 L516.8,413.0 L519.5,415.2 L519.6,416.6 L523.3,416.6 L527.7,416.2 L530.1,418.1 L533.2,418.6 L535.5,417.3 L535.6,416.3 L540.7,416.0 L545.6,415.9 L542.1,417.2 L543.5,419.1 L546.8,419.4 L549.9,421.4 L550.6,424.7 L552.7,424.6 L554.3,425.6 L557.0,427.1 L559.6,429.8 L559.7,431.9 L561.2,432.0 L563.4,434.0 L565.1,435.4 L570.0,436.3 L570.4,435.5 L573.8,435.2 L578.2,436.3 L579.6,436.8 L582.6,437.8 L586.9,441.2 L587.6,442.9 L589.0,442.7 L590.0,445.0 L592.4,452.2 L594.6,452.9 L594.7,455.7 L591.6,459.1 L592.8,460.3 L600.1,461.0 L600.3,465.1 L603.4,462.4 L608.6,463.9 L615.4,466.4 L617.4,468.8 L616.7,471.1 L621.5,469.8 L629.5,472.0 L635.6,471.8 L641.7,475.2 L647.0,479.8 L650.1,481.0 L653.7,481.2 L655.1,482.5 L656.5,487.7 L657.2,490.2 L655.6,497.0 L653.5,499.7 L647.7,505.4 L645.1,510.0 L642.0,513.6 L641.0,513.7 L639.9,516.7 L640.2,524.4 L639.0,530.7 L638.6,533.5 L637.3,535.1 L636.5,540.6 L632.4,545.9 L631.7,550.2 L628.3,552.0 L627.4,554.4 L622.9,554.4 L616.4,556.0 L613.6,557.8 L608.9,559.0 L604.1,562.3 L600.6,566.4 L600.0,569.5 L600.7,571.7 L599.9,575.9 L599.0,577.9 L596.1,580.1 L591.6,587.4 L588.0,590.6 L585.2,592.6 L583.3,596.5 L580.6,598.8 L578.8,601.4 L574.2,603.7 L571.1,602.9 L568.9,603.3 L565.1,601.5 L562.3,601.7 L559.8,599.4 L559.5,601.6 L564.7,605.1 L564.2,607.9 L566.7,609.7 L566.5,611.7 L562.6,617.0 L556.5,619.2 L548.2,620.0 L543.7,619.6 L544.6,622.1 L543.8,625.2 L544.5,627.2 L542.0,628.7 L537.8,629.2 L533.9,627.7 L532.3,628.8 L532.9,632.9 L535.6,634.1 L537.9,632.8 L539.1,635.0 L535.3,636.3 L532.0,638.8 L531.4,642.9 L530.5,645.2 L526.6,645.2 L523.3,647.3 L522.2,650.4 L526.2,653.4 L530.1,654.2 L528.7,657.9 L523.9,660.2 L521.2,665.0 L517.4,666.6 L515.8,668.6 L517.1,672.8 L519.8,675.2 L518.1,675.0 L514.4,675.0 L512.5,676.0 L508.7,677.5 L508.1,681.3 L506.3,681.4 L501.7,680.1 L497.0,677.2 L491.9,674.9 L490.6,672.3 L491.8,669.8 L489.7,667.1 L489.2,660.1 L490.9,656.1 L495.3,653.0 L489.0,651.8 L492.9,648.1 L494.3,641.3 L498.9,642.8 L501.0,634.2 L498.3,633.1 L497.0,638.3 L494.4,637.7 L495.7,631.8 L497.1,624.2 L499.0,621.4 L497.8,617.4 L497.5,612.8 L499.2,612.6 L501.7,606.0 L504.6,599.4 L506.3,593.3 L505.4,587.1 L506.6,583.7 L506.1,578.7 L508.5,573.6 L509.2,565.7 L510.6,557.1 L511.8,548.0 L511.5,541.2 L510.7,535.4 L506.6,533.1 L506.2,531.4 L498.1,527.3 L490.7,522.8 L487.5,520.2 L485.8,516.8 L486.5,515.6 L483.0,510.2 L479.0,502.7 L475.1,494.5 L473.4,492.6 L472.1,489.6 L468.9,486.9 L466.0,485.2 L467.3,483.4 L465.3,479.5 L466.6,476.6 L469.9,474.0 L472.1,470.9 L471.2,469.1 L469.6,471.0 L467.1,469.2 L468.0,468.1 L467.3,464.3 L468.7,463.7 L469.5,461.2 L471.0,458.5 L470.7,456.8 L473.0,456.0 L475.8,454.3 L475.3,453.0 L476.8,452.7 L476.6,450.7 L477.6,449.2 L479.6,448.9 L481.3,446.3 L482.9,444.2 L481.4,443.2 L482.2,440.8 L481.3,437.0 L482.1,436.0 L481.5,432.5 L479.8,430.3 L478.4,429.1 L477.6,426.9 L478.6,425.8 L477.5,425.5 L476.8,424.2 L474.7,423.0 L472.9,423.3 L472.1,424.7 L470.4,425.7 L469.5,425.9 L469.1,426.7 L471.1,429.0 L470.0,429.5 L469.4,430.1 L467.5,430.3 L466.8,427.9 L466.2,428.6 L464.9,428.3 L464.0,426.7 L462.3,426.4 L461.3,425.9 L459.5,425.9 L459.4,426.8 L458.9,426.2 L456.7,425.3 L455.9,424.4 L456.3,423.7 L456.2,422.8 L455.0,421.8 L453.4,421.0 L452.0,420.5 L451.7,419.3 L450.7,418.5 L450.9,419.7 L450.1,420.7 L449.2,419.6 L447.8,419.2 L447.3,418.3 L447.3,417.1 L447.8,415.8 L446.7,415.2 L447.6,414.4 L446.2,413.1 L444.3,411.5 L443.4,410.1 L441.6,408.8 L439.6,406.9 L440.0,406.3 L440.7,406.9 L441.0,406.6 L440.3,405.3 L439.1,405.0 L438.6,405.9 L436.2,405.9 L434.8,405.5 L433.1,404.7 L430.8,404.4 L429.6,403.5 L427.5,402.8 L424.9,402.7 L423.1,401.9 L420.8,400.2 L416.2,395.8 L414.1,394.5 L410.7,393.4 L408.4,393.7 L405.1,395.2 L403.0,395.6 L400.1,394.6 L397.1,393.8 L393.2,391.9 L390.1,391.3 L385.5,389.4 L382.0,387.4 L381.0,386.3 L378.7,386.1 L374.5,384.8 L372.8,382.9 L368.4,380.6 L366.3,378.0 L365.3,376.0 L366.7,375.6 L366.3,374.4 L367.2,373.4 L367.2,371.9 L365.9,370.1 L365.5,368.4 L364.1,366.4 L360.5,362.3 L356.3,359.1 L354.3,356.5 L350.8,354.8 L350.1,353.8 L350.7,351.3 L348.6,350.3 L346.2,348.3 L345.1,345.5 L342.9,345.1 L340.5,343.0 L338.6,341.0 L338.4,339.7 L336.2,336.6 L334.8,333.4 L334.8,331.9 L331.9,330.2 L330.5,330.4 L328.1,329.3 L327.5,330.9 L328.2,332.9 L328.6,336.0 L330.0,337.7 L333.0,340.5 L333.7,341.5 L334.3,341.8 L334.9,343.2 L335.6,343.1 L336.4,345.8 L337.7,346.8 L338.5,348.3 L341.1,350.4 L342.5,354.2 L343.7,356.0 L344.9,357.9 L345.1,360.1 L347.1,360.2 L348.7,362.1 L350.2,363.9 L350.1,364.7 L348.4,366.2 L347.6,366.2 L346.6,363.7 L343.9,361.3 L340.9,359.3 L338.8,358.3 L338.9,355.3 L338.3,353.1 L336.4,351.8 L333.5,350.0 L333.0,350.5 L332.0,349.4 L329.4,348.4 L327.0,346.0 L327.3,345.7 L329.0,346.0 L330.5,344.4 L330.7,342.6 L327.5,339.6 L325.1,338.5 L323.6,335.9 L322.0,333.2 L320.1,329.9 L318.5,326.2 L317.8,324.1 L315.1,321.8 L313.2,321.3 L312.8,320.1 L310.4,319.9 L309.0,318.8 L305.2,318.4 L304.1,317.7 L303.6,315.5 L299.6,311.3 L296.2,305.6 L296.3,304.7 L294.5,303.3 L291.3,299.9 L290.8,296.5 L288.6,294.3 L289.5,290.9 L289.3,287.3 L288.0,284.2 L289.6,280.3 L290.6,272.8 L289.9,267.3 L288.6,263.8 L287.4,261.9 L287.9,261.1 L293.8,262.5 L296.0,266.4 L297.0,265.3 L296.4,261.9 L295.0,258.6 L294.4,258.5 L286.5,254.5 L283.5,252.7 L276.1,251.0 L273.8,247.4 L274.4,244.9 L269.1,243.1 L268.4,239.8 L263.4,236.8 L263.4,234.7 L261.1,233.2 L257.5,231.8 L256.3,228.3 L251.0,224.9 L248.8,221.0 L244.8,220.8 L238.3,220.7 L233.5,219.5 L225.0,215.2 L221.1,214.5 L213.9,213.0 L208.2,213.3 L200.1,211.4 L195.2,209.7 L190.6,210.6 L191.5,213.4 L189.2,213.7 L184.5,214.5 L180.8,215.9 L176.3,216.8 L175.7,214.4 L177.5,210.3 L181.9,209.1 L180.8,208.1 L175.5,210.3 L172.7,213.1 L166.8,216.0 L169.8,218.0 L165.9,221.0 L161.5,222.7 L157.4,223.9 L156.4,225.7 L150.0,227.9 L148.7,229.8 L143.9,231.6 L141.0,231.2 L137.2,232.4 L133.0,233.8 L129.6,235.2 L122.5,236.3 L121.9,235.6 L126.4,233.7 L130.4,232.5 L134.8,230.2 L139.9,229.7 L141.9,228.1 L147.6,225.6 L148.5,224.8 L151.6,223.3 L152.3,220.2 L154.4,217.8 L149.6,219.0 L148.3,218.3 L146.1,219.8 L143.4,217.7 L142.3,219.2 L140.8,217.2 L136.7,218.8 L134.1,218.8 L133.8,216.3 L134.5,214.8 L131.9,213.4 L126.5,214.2 L123.1,212.2 L120.2,211.2 L120.2,208.9 L117.1,207.2 L118.6,204.8 L122.0,202.5 L123.5,200.4 L126.8,200.1 L129.6,200.8 L132.9,198.8 L135.9,199.1 L139.0,197.9 L138.3,196.0 L136.0,195.2 L139.0,193.6 L136.5,193.7 L132.1,194.6 L130.9,195.5 L127.6,194.6 L121.8,195.1 L115.8,194.1 L114.1,192.4 L108.9,190.0 L114.7,188.3 L123.8,186.3 L127.2,186.3 L126.6,188.3 L135.3,188.2 L132.0,185.6 L126.9,184.1 L124.0,182.0 L120.1,180.3 L114.4,179.0 L116.7,176.8 L124.0,176.7 L129.2,174.8 L130.2,172.8 L134.4,170.9 L138.4,170.4 L146.2,168.6 L150.0,168.8 L156.3,166.6 L162.5,167.5 L165.5,169.4 L167.3,168.6 L174.2,168.8 L174.0,169.8 L180.3,170.5 L184.5,170.0 L193.1,171.3 L201.1,171.7 L204.2,172.3 L209.7,171.6 L215.9,172.8 L220.4,173.4 L228.1,174.4 L234.5,176.4 L238.8,176.8 L242.4,175.0 L247.4,173.8 L253.5,174.3 L259.7,172.5 L266.4,171.4 L269.2,173.1 L272.3,172.2 L273.2,170.2 L276.1,170.7 L283.0,174.4 L288.5,171.6 L289.0,174.7 L294.1,174.0 L295.6,172.8 L300.6,173.1 L306.9,174.8 L316.5,176.3 L322.2,177.0 L326.2,176.7 L331.8,178.8 L326.0,180.8 L333.4,181.7 L344.5,181.2 L348.0,180.5 L352.4,183.0 L356.9,180.9 L352.7,179.2 L355.3,177.8 L360.3,177.6 L363.6,177.2 L366.9,178.1 L371.1,180.4 L375.6,180.0 L382.9,181.9 L389.3,181.2 L395.3,181.3 L394.8,178.8 L398.5,178.1 L404.8,179.5 L404.8,183.3 L407.4,180.1 L410.7,180.2 L412.6,176.0 L408.2,173.5 L403.4,171.9 L403.7,167.3 L408.6,164.3 L414.0,165.0 L418.2,166.8 L423.8,171.4 L420.1,173.5 L427.8,174.3 Z M330.6,159.4 L328.6,161.3 L337.7,160.1 L343.5,162.1 L348.1,160.0 L351.9,161.4 L355.2,165.4 L357.3,163.7 L354.4,159.5 L358.0,158.9 L362.1,159.6 L366.7,161.2 L369.3,165.2 L370.5,168.1 L377.4,170.2 L384.9,172.1 L384.4,173.9 L377.7,174.3 L380.3,175.8 L378.9,177.3 L371.5,176.7 L364.4,175.6 L359.6,175.8 L351.9,177.2 L339.7,178.0 L334.2,178.2 L331.9,176.3 L326.3,175.2 L322.7,175.6 L317.6,172.4 L320.3,171.9 L326.7,171.2 L332.5,171.4 L337.8,170.7 L329.9,169.8 L321.1,170.1 L315.3,170.0 L313.1,168.5 L322.6,166.8 L316.3,166.9 L309.1,165.8 L312.6,162.7 L315.4,161.1 L326.4,158.6 L330.6,159.4 Z M370.4,158.2 L366.8,160.9 L360.4,158.0 L361.8,157.4 L367.3,157.3 L370.4,158.2 Z M486.2,159.5 L486.5,160.6 L482.2,160.5 L477.7,160.4 L473.2,160.9 L472.0,160.7 L467.5,158.5 L467.7,157.0 L469.7,156.8 L479.1,157.2 L486.2,159.5 Z M444.1,159.2 L447.4,161.8 L451.2,158.5 L461.6,156.8 L468.6,161.1 L468.0,163.7 L476.2,162.6 L480.1,160.9 L489.2,163.0 L494.8,165.0 L495.4,166.8 L503.0,165.8 L507.3,168.4 L517.2,170.1 L520.8,171.7 L524.7,175.6 L517.1,177.5 L526.8,180.2 L533.3,181.1 L539.3,184.8 L545.7,185.1 L544.4,188.0 L537.2,192.8 L532.2,191.0 L525.7,187.1 L520.4,187.6 L519.9,189.9 L524.2,192.3 L529.8,194.2 L531.5,195.3 L534.1,199.4 L532.7,202.3 L527.5,201.2 L517.2,197.9 L523.0,201.5 L527.3,204.0 L528.0,205.4 L516.8,203.8 L508.0,201.4 L503.0,199.4 L504.5,198.2 L498.3,196.1 L492.3,194.1 L492.4,195.3 L480.5,195.9 L477.0,194.5 L479.8,191.5 L487.5,191.4 L495.9,190.9 L494.6,189.4 L496.0,187.4 L501.3,183.4 L500.2,181.6 L498.6,180.2 L492.3,178.2 L484.0,176.8 L486.6,175.7 L482.3,173.2 L478.6,172.9 L475.4,171.5 L473.2,172.7 L465.7,173.3 L450.8,172.4 L442.1,171.2 L435.4,170.5 L432.0,169.1 L436.3,167.2 L430.5,167.2 L429.2,163.0 L432.3,159.4 L436.5,157.7 L447.2,156.6 L444.1,159.2 Z M387.4,156.4 L392.3,157.3 L399.7,156.8 L400.7,158.0 L396.9,159.9 L403.1,161.7 L402.4,165.4 L395.6,167.0 L391.7,166.6 L388.8,165.1 L378.6,161.9 L378.7,160.6 L387.1,161.1 L382.6,158.4 L387.4,156.4 Z M1390.4,159.0 L1384.1,159.0 L1375.7,158.6 L1375.0,158.4 L1378.9,156.7 L1384.0,156.4 L1389.9,157.9 L1390.4,159.0 Z M416.9,160.8 L412.4,163.9 L407.8,163.7 L405.2,160.1 L405.3,158.1 L407.4,156.3 L411.5,155.2 L420.1,155.4 L427.9,156.4 L421.8,160.0 L416.9,160.8 Z M304.8,166.5 L294.0,168.5 L291.8,166.7 L282.3,164.5 L283.7,163.2 L286.9,159.8 L290.5,157.1 L286.4,154.6 L300.3,153.9 L306.2,154.8 L316.7,155.0 L320.7,156.2 L325.1,157.9 L320.0,159.0 L309.9,161.9 L304.8,164.7 L304.8,166.5 Z M1419.7,151.3 L1414.9,152.9 L1408.4,152.6 L1400.7,151.0 L1401.7,149.6 L1409.4,150.2 L1419.7,151.3 Z M415.1,151.7 L412.9,153.3 L406.9,153.0 L402.0,152.0 L404.1,150.1 L410.1,149.0 L413.6,150.4 L415.1,151.7 Z M1396.5,149.4 L1393.2,152.4 L1378.1,152.3 L1371.3,153.3 L1363.1,150.6 L1365.3,147.8 L1370.7,147.0 L1381.6,147.2 L1396.5,149.4 Z M395.1,144.6 L398.2,146.5 L398.3,148.6 L396.5,151.7 L389.7,152.1 L385.3,151.4 L385.3,149.0 L378.6,149.3 L378.3,146.2 L382.8,146.3 L389.0,144.9 L394.7,145.1 L395.1,144.6 Z M355.1,146.7 L356.7,148.2 L360.4,147.5 L364.7,147.7 L365.4,149.7 L362.9,151.6 L349.0,152.3 L338.6,154.1 L332.4,154.2 L331.9,152.8 L340.4,151.0 L321.8,151.5 L316.1,150.8 L321.7,146.7 L325.6,145.6 L337.1,147.0 L344.4,149.4 L351.6,149.7 L345.7,145.8 L349.5,144.3 L353.7,144.8 L355.1,146.7 Z M1036.5,169.3 L1034.1,169.6 L1020.7,169.1 L1019.6,167.3 L1012.1,166.2 L1011.5,163.9 L1015.7,163.1 L1015.6,160.8 L1023.8,157.3 L1020.0,156.8 L1029.8,153.2 L1028.7,151.3 L1037.9,149.2 L1051.5,146.5 L1065.2,145.8 L1072.2,144.2 L1080.2,143.7 L1083.1,145.3 L1080.3,146.6 L1065.7,148.6 L1053.2,150.6 L1040.4,154.5 L1034.3,158.5 L1027.8,162.5 L1028.7,165.9 L1036.5,169.3 Z M410.7,143.0 L415.3,144.4 L423.4,144.4 L427.0,145.7 L426.0,147.3 L430.7,148.2 L433.3,149.2 L438.9,149.3 L444.9,149.7 L451.4,148.8 L459.8,148.4 L466.5,148.7 L470.9,150.3 L471.8,152.0 L469.2,153.1 L463.1,154.0 L457.8,153.5 L446.0,154.1 L437.6,154.2 L431.0,153.7 L420.0,152.3 L418.6,150.1 L418.1,148.0 L414.0,146.2 L405.5,145.7 L400.7,144.5 L402.3,142.8 L410.7,143.0 Z M322.3,140.8 L321.7,144.0 L318.6,145.4 L314.7,145.6 L307.1,147.3 L300.5,148.0 L294.9,147.1 L294.9,147.1 L301.9,144.0 L310.4,141.3 L316.7,141.4 L322.3,140.8 Z M1239.8,143.6 L1240.9,145.6 L1244.6,144.6 L1256.7,144.6 L1265.9,146.6 L1269.2,148.2 L1268.2,150.3 L1263.6,151.5 L1252.8,153.8 L1249.8,155.0 L1254.9,155.6 L1260.9,156.7 L1264.6,155.9 L1266.7,158.5 L1268.5,157.4 L1275.1,156.8 L1288.3,157.5 L1289.3,159.4 L1306.5,160.0 L1306.7,156.9 L1315.5,157.6 L1322.0,157.6 L1328.7,159.7 L1330.5,162.4 L1328.1,164.1 L1333.3,167.3 L1339.7,169.0 L1343.7,164.7 L1350.3,166.5 L1357.3,165.4 L1365.3,166.7 L1368.3,165.5 L1375.0,166.1 L1372.1,162.3 L1377.5,160.5 L1414.6,163.2 L1418.1,165.6 L1428.9,168.8 L1445.5,168.0 L1453.7,168.7 L1457.1,170.4 L1456.6,173.4 L1461.6,174.5 L1467.1,173.7 L1474.4,173.6 L1482.2,174.4 L1490.0,173.9 L1497.2,177.6 L1502.2,176.3 L1498.9,173.6 L1500.8,171.8 L1513.9,173.0 L1522.4,172.7 L1534.2,174.7 L1540.0,176.5 L1540.0,192.9 L1540.0,192.9 L1534.7,194.7 L1529.4,194.4 L1533.1,196.6 L1535.5,200.0 L1537.4,201.1 L1537.9,202.8 L1536.8,203.9 L1529.2,203.0 L1517.7,206.1 L1514.0,206.5 L1507.7,209.4 L1501.8,212.0 L1500.2,213.8 L1494.4,211.0 L1483.7,214.2 L1481.8,212.7 L1477.8,214.4 L1472.3,213.9 L1471.0,216.6 L1466.1,220.6 L1466.2,222.2 L1470.9,223.1 L1470.3,229.1 L1466.5,229.3 L1464.8,232.7 L1466.5,234.5 L1459.3,236.6 L1457.9,241.3 L1451.7,242.3 L1450.5,246.5 L1444.6,250.3 L1443.1,247.5 L1441.3,241.5 L1439.0,232.3 L1441.0,226.6 L1444.5,224.2 L1444.7,222.2 L1451.1,221.3 L1458.4,216.1 L1465.5,211.9 L1472.9,208.6 L1476.2,202.8 L1471.2,203.2 L1468.7,206.6 L1458.3,211.1 L1454.9,206.0 L1444.3,207.4 L1434.0,214.3 L1437.4,216.8 L1428.2,217.9 L1421.9,218.3 L1422.2,215.4 L1415.8,214.7 L1410.7,216.8 L1398.1,216.1 L1384.6,217.3 L1371.3,225.3 L1355.5,235.0 L1362.0,235.5 L1364.0,238.1 L1368.0,239.0 L1370.6,237.0 L1375.2,237.2 L1381.1,241.7 L1381.2,245.2 L1378.0,249.3 L1377.7,254.3 L1375.8,260.8 L1369.6,266.8 L1368.2,269.6 L1362.7,274.4 L1357.1,279.2 L1354.5,281.6 L1349.0,284.0 L1346.4,284.1 L1343.8,282.1 L1338.3,285.1 L1337.7,286.4 L1336.1,286.2 L1334.3,287.6 L1333.1,289.0 L1333.2,291.9 L1331.1,292.8 L1330.4,293.6 L1328.8,294.8 L1326.1,295.5 L1324.3,296.6 L1324.2,298.3 L1323.7,298.8 L1325.3,299.5 L1327.7,301.3 L1331.2,306.1 L1332.2,308.8 L1332.3,313.5 L1330.7,315.8 L1327.0,316.6 L1323.7,318.3 L1320.0,318.6 L1319.5,316.4 L1320.3,313.3 L1318.5,309.0 L1321.5,308.3 L1318.7,304.8 L1316.7,304.0 L1316.2,304.8 L1315.0,305.1 L1314.9,304.4 L1313.8,304.0 L1312.7,303.3 L1313.8,301.5 L1314.8,301.0 L1314.4,300.3 L1315.5,298.1 L1315.2,297.4 L1312.8,297.0 L1310.9,295.8 L1305.1,297.0 L1302.1,299.0 L1297.7,300.1 L1299.9,298.2 L1299.0,296.6 L1302.2,293.8 L1300.1,291.7 L1296.5,293.1 L1291.9,296.0 L1289.3,298.6 L1285.3,298.8 L1283.2,300.7 L1285.4,303.5 L1288.7,304.2 L1288.9,306.0 L1292.1,307.2 L1296.7,304.3 L1300.4,305.9 L1303.0,306.0 L1303.7,308.2 L1297.9,309.3 L1296.0,311.5 L1292.0,313.6 L1289.8,316.5 L1294.3,318.7 L1295.9,322.8 L1298.4,326.6 L1301.2,329.7 L1301.1,332.8 L1298.5,333.9 L1299.5,336.1 L1301.9,337.4 L1301.3,340.7 L1300.3,344.0 L1298.0,344.3 L1295.0,348.8 L1291.6,354.2 L1287.8,359.1 L1282.2,362.9 L1276.4,366.3 L1271.8,366.8 L1269.3,368.6 L1267.9,367.3 L1265.5,369.3 L1259.8,371.4 L1255.5,372.0 L1254.0,376.4 L1251.8,376.6 L1250.7,373.6 L1251.7,372.0 L1246.1,370.7 L1244.2,371.4 L1238.7,374.9 L1235.3,378.8 L1234.4,381.6 L1237.5,386.0 L1241.4,391.4 L1245.1,393.9 L1247.6,397.2 L1249.5,404.8 L1248.9,412.0 L1245.5,414.7 L1240.8,417.4 L1237.4,420.8 L1232.3,424.6 L1230.8,422.0 L1232.0,419.2 L1228.9,416.9 L1225.5,416.3 L1223.8,414.1 L1221.7,409.9 L1218.0,408.0 L1214.5,408.1 L1215.1,404.9 L1211.5,404.9 L1211.2,409.4 L1209.0,415.4 L1207.6,419.0 L1207.9,422.0 L1210.6,422.1 L1212.3,425.9 L1213.0,429.5 L1215.3,431.8 L1217.8,432.3 L1219.9,434.4 L1220.9,434.8 L1223.3,437.3 L1225.0,440.0 L1225.2,442.8 L1224.8,444.7 L1225.2,446.1 L1225.5,448.5 L1227.0,449.7 L1228.6,453.3 L1228.5,454.7 L1225.6,455.0 L1221.7,451.9 L1216.8,448.6 L1216.3,446.6 L1214.0,443.8 L1213.4,440.4 L1211.9,438.2 L1212.4,435.2 L1211.5,433.4 L1209.8,431.8 L1209.1,429.8 L1207.0,427.5 L1205.0,425.5 L1204.3,428.0 L1203.5,425.7 L1204.0,423.1 L1205.2,419.2 L1204.8,416.1 L1206.0,413.0 L1204.6,410.5 L1205.0,406.1 L1203.3,403.9 L1202.0,399.0 L1201.2,393.8 L1199.5,390.4 L1196.7,392.5 L1192.1,395.4 L1189.8,395.0 L1187.2,394.1 L1188.6,389.0 L1187.8,385.1 L1184.6,380.4 L1185.1,378.9 L1182.7,378.4 L1179.7,375.0 L1178.6,372.9 L1178.3,370.8 L1177.5,368.8 L1175.8,366.4 L1172.0,366.2 L1172.4,367.9 L1171.1,370.2 L1169.4,369.4 L1168.8,370.1 L1167.6,369.7 L1166.0,369.3 L1165.4,370.8 L1162.6,370.8 L1157.6,371.6 L1157.8,374.7 L1155.6,377.2 L1149.7,379.9 L1145.1,384.8 L1142.0,387.4 L1137.9,390.0 L1137.9,391.9 L1135.8,392.9 L1132.1,394.4 L1130.2,394.6 L1129.0,397.8 L1129.8,403.1 L1130.1,406.5 L1128.3,410.4 L1128.3,417.4 L1126.2,417.6 L1124.3,420.8 L1125.6,422.1 L1121.8,423.3 L1120.4,426.1 L1118.8,427.3 L1114.9,423.4 L1113.0,417.7 L1111.4,413.5 L1110.0,411.6 L1107.8,407.6 L1106.8,402.5 L1106.0,399.9 L1102.3,394.3 L1100.6,386.3 L1099.4,381.0 L1099.4,376.1 L1098.6,372.2 L1092.6,374.7 L1089.7,374.2 L1084.3,369.2 L1086.3,367.7 L1085.1,366.1 L1080.3,362.6 L1077.3,361.6 L1076.0,358.6 L1072.9,355.5 L1065.3,356.2 L1058.6,356.3 L1052.8,356.9 L1045.1,355.7 L1040.6,354.7 L1036.0,354.2 L1034.2,349.1 L1032.2,348.4 L1029.1,349.1 L1024.9,351.1 L1019.9,349.8 L1015.8,346.6 L1011.8,345.4 L1009.1,341.5 L1006.0,336.1 L1003.8,336.7 L1001.2,335.4 L999.7,337.0 L997.2,336.8 L998.1,338.6 L997.7,339.5 L999.0,342.6 L1000.7,346.2 L1002.7,347.1 L1003.4,348.5 L1006.2,350.3 L1006.4,352.0 L1006.0,353.3 L1006.5,354.7 L1007.7,355.9 L1008.3,357.2 L1008.9,358.2 L1008.6,355.2 L1009.7,353.1 L1010.8,352.6 L1012.1,353.9 L1012.2,356.3 L1011.3,358.8 L1012.0,360.3 L1012.8,360.1 L1012.9,361.3 L1016.2,360.6 L1019.6,360.7 L1022.0,360.8 L1024.8,358.1 L1027.9,355.4 L1030.5,352.9 L1031.7,351.5 L1032.2,351.8 L1031.8,353.5 L1031.3,354.3 L1031.9,357.5 L1033.7,360.3 L1036.0,361.8 L1039.0,362.4 L1041.4,363.1 L1043.3,365.5 L1044.4,366.8 L1045.9,367.4 L1045.9,368.3 L1044.4,370.7 L1043.7,371.9 L1042.0,373.2 L1040.5,376.0 L1038.6,375.8 L1037.7,376.8 L1037.1,378.9 L1037.6,381.6 L1037.2,382.1 L1035.3,382.1 L1032.7,383.6 L1032.3,385.6 L1031.4,386.5 L1028.8,386.5 L1027.2,387.5 L1027.2,389.2 L1025.3,390.3 L1023.0,389.9 L1020.2,391.3 L1018.3,391.5 L1015.4,392.6 L1014.6,394.5 L1014.5,395.9 L1010.4,397.6 L1003.8,399.5 L1000.1,402.4 L998.3,402.7 L997.1,402.4 L994.7,404.1 L992.1,404.9 L988.6,405.1 L987.6,405.4 L986.7,406.4 L985.6,406.7 L985.0,407.8 L982.9,407.7 L981.6,408.3 L978.8,408.0 L977.7,405.6 L977.8,403.4 L977.1,402.2 L976.3,399.1 L975.2,397.5 L976.0,397.3 L975.6,395.4 L976.1,394.6 L975.9,392.8 L975.3,391.0 L974.1,389.8 L973.8,388.2 L971.7,386.7 L969.5,383.2 L968.3,379.9 L965.5,377.1 L963.6,376.4 L960.9,372.5 L960.4,369.6 L960.6,367.2 L958.2,362.6 L956.3,361.0 L954.1,360.2 L952.7,357.8 L953.0,356.9 L951.8,354.7 L950.6,353.8 L949.0,350.8 L946.5,347.5 L944.4,344.6 L942.4,344.6 L943.0,342.4 L943.2,341.0 L943.7,339.3 L943.6,338.7 L942.4,340.4 L941.5,343.5 L940.4,345.6 L939.5,346.3 L938.1,345.0 L936.2,343.2 L933.3,337.3 L932.9,337.7 L934.6,342.0 L937.1,346.1 L940.2,352.5 L941.7,354.8 L943.0,357.1 L946.7,361.6 L945.9,362.4 L946.1,365.0 L950.8,368.7 L951.6,369.6 L952.9,373.6 L952.0,374.3 L952.6,378.6 L954.1,383.5 L955.7,384.5 L957.9,386.0 L960.3,390.8 L961.4,394.5 L963.7,396.5 L969.3,400.4 L971.6,402.8 L973.8,405.1 L975.1,406.6 L977.1,407.8 L978.1,409.1 L978.0,410.8 L975.6,411.8 L977.4,412.9 L978.7,413.6 L979.5,415.3 L981.4,417.1 L983.4,417.1 L987.3,416.0 L991.8,415.5 L995.4,414.3 L997.4,414.0 L998.9,413.2 L1001.2,413.1 L1002.5,413.0 L1004.4,412.4 L1006.6,412.0 L1008.6,410.6 L1010.1,410.6 L1010.2,411.7 L1009.8,414.1 L1009.9,416.3 L1009.0,417.7 L1007.8,422.2 L1005.8,426.8 L1003.3,432.0 L999.8,438.1 L996.3,442.7 L991.4,448.3 L987.3,451.6 L981.2,455.7 L977.3,458.8 L972.8,463.8 L971.9,465.9 L971.0,466.9 L968.1,468.6 L967.1,470.3 L965.5,470.6 L964.9,473.5 L963.6,475.1 L962.8,477.9 L961.2,479.2 L959.3,484.3 L959.5,486.6 L962.1,488.1 L962.3,489.2 L961.1,491.7 L961.4,492.9 L961.1,494.9 L962.5,497.5 L964.2,501.5 L965.7,502.4 L966.4,504.3 L966.2,508.4 L966.8,512.0 L966.9,518.4 L967.6,520.4 L966.4,523.3 L964.8,526.2 L962.2,528.7 L958.4,530.3 L953.8,532.3 L949.2,536.7 L947.6,537.5 L944.7,540.4 L943.0,541.3 L942.7,544.3 L944.6,547.4 L945.4,549.8 L945.5,551.0 L946.2,550.8 L946.1,554.8 L945.4,556.8 L946.4,557.5 L945.8,559.2 L944.1,560.6 L940.7,562.0 L935.7,564.2 L933.9,565.8 L934.3,567.5 L935.3,567.8 L935.0,569.9 L933.9,572.9 L933.5,576.3 L932.4,578.2 L929.6,580.3 L928.8,580.9 L927.0,583.0 L925.9,585.1 L923.6,588.0 L918.9,592.3 L916.0,594.7 L912.9,596.6 L908.6,598.2 L906.5,598.4 L906.0,599.5 L903.5,598.9 L901.5,599.7 L897.0,598.9 L894.5,599.4 L892.8,599.2 L888.6,600.8 L885.1,601.5 L882.5,603.0 L880.6,603.1 L878.9,601.7 L877.5,601.6 L875.7,599.8 L875.6,600.3 L875.0,599.2 L875.0,596.8 L873.7,594.1 L875.0,593.3 L874.9,590.2 L872.2,586.3 L870.2,582.8 L870.1,582.8 L867.2,577.5 L864.1,574.4 L862.5,571.4 L861.6,567.4 L860.6,564.4 L859.2,558.1 L859.1,553.1 L858.6,550.9 L857.0,549.2 L854.9,545.8 L852.7,540.9 L851.8,538.3 L848.5,534.3 L848.2,531.1 L847.9,528.5 L848.4,524.9 L849.8,521.2 L850.1,519.4 L851.4,515.7 L852.4,514.0 L854.7,511.3 L856.0,509.5 L856.5,506.4 L856.3,504.1 L855.0,502.6 L853.9,500.2 L852.9,497.7 L853.2,496.8 L854.4,495.2 L853.2,491.2 L852.3,488.5 L850.3,485.9 L850.7,485.1 L850.1,483.8 L849.0,480.7 L845.6,476.4 L841.4,472.2 L838.7,468.8 L836.2,464.6 L836.3,463.2 L837.2,461.9 L838.2,458.9 L839.0,455.8 L838.3,455.2 L839.7,450.6 L840.3,447.4 L838.7,444.6 L836.8,443.9 L836.0,442.1 L834.9,441.5 L834.9,440.4 L830.7,441.9 L829.1,441.6 L827.5,442.6 L824.2,442.5 L822.0,439.9 L820.7,436.9 L817.8,434.2 L814.7,434.3 L811.1,434.3 L807.7,434.7 L804.4,435.6 L797.9,438.0 L795.6,439.4 L791.9,440.6 L788.3,439.5 L786.4,439.5 L783.5,438.7 L780.9,438.8 L776.0,439.5 L773.2,440.7 L769.1,442.2 L768.3,442.1 L767.2,442.1 L763.0,440.1 L759.2,437.0 L755.7,434.8 L753.0,432.1 L751.9,431.8 L748.9,430.1 L746.8,427.9 L746.0,426.4 L745.5,423.4 L743.7,421.0 L742.1,419.4 L741.1,418.8 L740.1,418.0 L739.6,416.2 L739.0,415.3 L737.8,414.6 L735.6,412.9 L733.9,412.6 L732.9,411.5 L733.0,410.8 L731.7,410.0 L731.4,409.1 L730.8,405.9 L731.3,404.1 L729.6,400.9 L727.5,399.4 L729.3,398.7 L731.3,395.8 L732.3,393.7 L732.0,391.5 L733.1,389.4 L733.6,385.6 L733.2,381.5 L732.7,379.4 L733.1,377.4 L732.0,375.4 L729.9,373.7 L730.0,371.9 L730.2,370.0 L731.8,368.9 L733.1,366.8 L732.9,365.4 L734.3,362.5 L736.6,359.9 L738.0,359.2 L739.1,356.8 L739.2,354.6 L740.6,352.1 L743.4,350.6 L746.0,346.4 L748.1,344.7 L751.9,344.3 L755.2,341.5 L757.2,340.4 L760.7,336.9 L759.7,331.8 L761.2,328.3 L761.8,326.1 L764.4,323.3 L768.5,321.5 L771.6,319.8 L774.3,315.5 L775.6,313.0 L778.6,313.0 L781.1,314.8 L785.0,314.5 L789.3,315.4 L791.1,315.4 L795.0,313.2 L799.5,312.5 L802.1,310.8 L806.0,309.5 L813.0,308.8 L819.8,308.4 L821.9,309.1 L825.7,307.4 L830.1,307.4 L831.8,308.4 L834.6,308.1 L839.1,306.4 L842.0,306.9 L841.9,309.0 L845.3,307.5 L845.6,308.3 L843.6,310.3 L843.6,312.2 L845.0,313.2 L844.4,316.8 L841.7,318.9 L842.5,321.1 L844.6,321.2 L845.7,323.1 L847.2,323.8 L852.1,325.2 L853.8,324.8 L857.2,325.5 L862.7,327.4 L864.6,331.0 L868.3,331.8 L874.1,333.5 L878.5,335.6 L880.5,334.5 L882.4,332.6 L881.5,329.5 L882.8,327.5 L885.7,325.5 L888.6,325.0 L894.1,325.8 L895.5,327.7 L897.1,327.7 L898.4,328.4 L902.5,328.9 L903.5,330.2 L908.9,330.1 L912.9,331.2 L917.0,332.4 L918.9,333.1 L922.0,331.8 L923.7,330.6 L927.3,330.3 L930.3,330.8 L931.4,332.8 L932.3,331.5 L935.6,332.5 L938.8,332.7 L940.9,331.7 L942.1,330.3 L941.8,330.1 L942.9,328.1 L943.7,325.0 L944.3,324.0 L944.4,324.0 L945.9,320.6 L947.9,317.7 L948.0,317.6 L947.6,314.4 L948.6,312.7 L947.1,310.9 L948.7,309.3 L946.2,309.7 L942.7,308.7 L939.9,311.1 L933.6,311.6 L930.3,309.4 L925.9,309.2 L924.9,310.9 L922.1,311.4 L918.1,309.2 L913.6,309.3 L911.2,305.2 L908.2,302.9 L910.2,299.7 L907.6,297.8 L912.2,293.8 L918.5,293.7 L920.2,290.5 L928.0,291.1 L933.0,288.4 L937.8,287.3 L944.6,287.2 L951.8,290.1 L957.7,291.7 L962.4,291.0 L966.0,291.4 L970.8,289.2 L971.4,287.5 L970.4,284.7 L968.0,283.2 L965.8,282.7 L964.3,281.4 L959.0,278.0 L954.3,276.4 L950.8,274.0 L953.8,273.3 L957.2,269.9 L954.9,268.3 L960.9,266.6 L960.8,265.7 L957.1,266.4 L953.9,266.7 L951.1,268.0 L947.3,268.2 L943.7,269.8 L944.0,272.3 L946.0,273.3 L950.2,273.1 L949.4,274.5 L944.9,275.2 L939.3,277.6 L937.0,276.8 L937.9,274.9 L933.4,273.7 L934.1,272.9 L938.1,271.5 L936.9,270.6 L930.5,269.5 L930.2,268.0 L926.4,268.5 L924.9,270.8 L921.7,273.8 L921.8,274.9 L919.8,275.7 L918.6,275.4 L917.4,280.3 L915.3,282.0 L913.8,285.0 L915.1,287.3 L915.6,288.9 L919.2,290.2 L918.4,291.2 L913.5,291.4 L911.8,292.7 L908.4,294.9 L907.1,293.0 L907.1,292.2 L904.6,292.1 L902.5,291.7 L897.5,292.7 L900.3,295.0 L898.3,295.7 L896.0,295.7 L893.8,293.6 L893.0,294.5 L893.9,297.0 L896.0,298.9 L894.4,299.8 L896.7,301.7 L898.8,302.9 L898.8,305.2 L895.0,304.1 L896.2,306.2 L893.6,306.6 L895.2,310.3 L892.5,310.3 L889.1,308.5 L887.5,305.2 L886.8,302.5 L885.2,300.6 L883.1,298.3 L882.8,297.1 L882.1,296.8 L882.1,295.9 L879.8,294.5 L879.4,292.6 L879.8,289.8 L880.3,288.5 L879.6,287.8 L878.8,287.5 L877.6,286.2 L875.9,285.4 L872.0,283.8 L869.6,282.4 L865.8,281.1 L862.4,278.1 L863.2,277.8 L861.3,276.1 L861.3,274.7 L858.6,274.0 L857.4,275.8 L856.1,274.4 L856.2,273.0 L856.4,272.9 L857.3,272.6 L854.0,272.0 L850.7,273.4 L850.9,275.5 L850.4,276.6 L851.8,278.7 L855.6,280.8 L857.7,284.2 L862.3,287.5 L865.5,287.5 L866.5,288.4 L865.3,289.2 L869.0,290.7 L872.0,291.9 L875.5,294.1 L876.0,294.9 L875.2,296.3 L872.9,294.4 L869.4,293.7 L867.6,296.4 L870.6,297.9 L870.1,300.1 L868.4,300.3 L866.2,303.8 L864.5,304.2 L864.5,302.9 L865.3,300.7 L866.2,299.8 L864.6,297.4 L863.4,295.4 L861.7,294.8 L860.4,293.1 L857.8,292.3 L856.0,290.7 L853.0,290.4 L849.8,288.5 L846.0,285.9 L843.2,283.5 L841.9,279.4 L839.9,279.0 L836.5,277.6 L834.7,278.2 L832.3,280.1 L830.6,280.4 L826.8,282.7 L818.7,281.6 L812.7,282.9 L812.3,285.4 L812.5,287.8 L808.6,290.5 L803.3,291.4 L803.0,292.8 L800.4,295.0 L798.9,298.4 L800.5,300.7 L798.1,302.6 L797.2,305.2 L794.1,306.1 L791.2,309.2 L786.0,309.3 L782.0,309.2 L779.5,310.7 L777.9,312.2 L775.9,311.9 L774.4,310.5 L773.2,308.1 L769.4,307.5 L767.7,308.6 L765.5,308.0 L763.4,308.4 L764.0,305.2 L763.7,302.7 L761.8,302.3 L760.8,300.7 L761.2,298.1 L762.8,296.6 L763.1,294.9 L764.0,292.4 L763.9,290.7 L763.0,289.2 L762.9,287.8 L763.1,284.9 L761.4,283.1 L767.2,280.1 L772.2,280.9 L777.8,280.9 L782.1,281.6 L785.5,281.3 L792.2,281.5 L794.3,279.0 L795.1,270.8 L790.8,266.5 L787.8,264.4 L781.5,262.9 L781.1,259.9 L786.5,259.0 L793.4,260.0 L792.1,255.4 L795.9,257.1 L805.5,253.9 L806.7,250.6 L810.3,249.7 L813.6,248.9 L815.7,247.8 L819.3,241.7 L825.0,240.0 L828.4,240.1 L829.2,239.3 L832.6,239.0 L833.4,239.9 L836.2,237.9 L835.2,236.4 L835.1,234.0 L833.4,231.8 L833.3,227.6 L833.9,226.4 L835.1,225.2 L838.7,225.0 L840.2,223.8 L843.5,222.7 L843.4,224.8 L842.1,226.1 L842.6,227.3 L844.9,227.9 L843.9,229.4 L842.6,229.0 L839.7,232.0 L840.8,234.0 L840.9,235.5 L845.0,236.5 L845.0,238.0 L849.2,237.2 L851.5,236.1 L856.1,237.7 L858.0,239.0 L860.9,237.8 L867.3,235.9 L872.4,234.5 L876.6,235.2 L876.9,236.2 L880.8,236.2 L881.8,234.4 L887.4,233.1 L886.6,229.6 L886.7,226.6 L888.7,224.0 L892.6,222.6 L895.9,225.6 L899.2,225.6 L900.0,222.4 L900.4,220.0 L898.9,220.5 L896.3,219.0 L896.0,216.7 L901.2,215.5 L906.3,214.9 L910.8,215.6 L915.0,215.5 L919.7,213.2 L915.4,211.3 L907.9,211.6 L900.7,213.1 L894.0,214.0 L891.6,211.7 L887.7,210.4 L888.6,206.3 L886.6,202.6 L888.5,200.2 L892.3,197.6 L901.7,193.2 L904.4,192.3 L904.0,190.6 L898.3,188.6 L891.2,189.8 L887.2,192.7 L887.9,195.2 L881.3,198.5 L873.4,202.0 L870.4,207.8 L873.3,210.7 L877.2,213.0 L873.5,217.6 L869.2,218.6 L867.6,225.5 L865.3,229.3 L860.3,229.0 L858.0,232.2 L853.2,232.4 L851.9,228.5 L848.5,223.8 L845.3,218.0 L842.6,215.5 L834.5,220.3 L829.0,221.2 L823.3,219.1 L821.8,214.7 L820.5,205.2 L824.3,202.6 L835.2,199.1 L843.3,194.9 L850.8,189.2 L860.7,181.2 L867.6,178.1 L878.9,173.0 L887.9,171.2 L894.7,171.4 L900.9,168.0 L908.4,168.2 L915.8,167.3 L928.7,170.4 L923.4,171.5 L927.9,174.0 L932.1,172.6 L938.9,175.1 L950.1,176.1 L965.6,180.7 L968.8,182.7 L969.1,185.4 L964.5,187.6 L957.8,188.7 L939.4,185.5 L936.4,186.1 L943.1,189.1 L943.7,195.2 L949.0,196.4 L952.2,197.5 L952.7,195.5 L950.1,193.7 L952.8,192.2 L962.8,194.7 L966.2,193.7 L963.5,190.7 L973.0,186.7 L976.8,186.9 L980.7,188.4 L983.1,185.6 L979.6,183.1 L981.7,180.6 L978.6,178.1 L990.1,179.4 L992.5,181.7 L987.3,182.2 L987.3,184.5 L990.5,185.9 L996.9,185.0 L997.9,182.4 L1006.5,180.4 L1020.8,176.9 L1023.9,177.1 L1019.9,179.6 L1025.0,180.0 L1027.9,178.6 L1035.6,178.5 L1041.7,176.8 L1046.4,179.3 L1051.1,176.6 L1046.8,174.2 L1048.9,172.8 L1061.1,174.1 L1066.8,175.4 L1081.7,180.1 L1084.4,177.9 L1080.2,175.7 L1080.1,174.9 L1075.2,174.5 L1076.5,172.5 L1074.3,169.3 L1074.2,168.0 L1081.8,164.3 L1084.5,160.5 L1087.5,159.7 L1098.4,160.8 L1099.3,163.1 L1095.4,166.4 L1097.9,167.7 L1099.3,170.6 L1098.3,176.2 L1102.9,178.8 L1101.1,181.5 L1093.0,187.4 L1097.7,188.0 L1099.4,186.5 L1103.9,185.4 L1105.0,183.4 L1108.5,181.4 L1106.2,179.1 L1108.1,176.4 L1103.6,176.0 L1102.6,173.8 L1105.9,169.6 L1100.5,166.3 L1107.9,163.5 L1106.9,160.6 L1109.0,160.5 L1111.1,162.8 L1109.5,166.7 L1113.9,167.5 L1112.0,164.5 L1118.9,162.9 L1127.5,162.7 L1135.1,165.0 L1131.4,161.6 L1131.0,157.2 L1138.1,156.4 L1148.0,156.6 L1156.9,156.0 L1153.6,153.9 L1158.4,151.2 L1163.1,151.1 L1171.1,149.0 L1181.9,148.5 L1183.3,147.4 L1194.1,147.0 L1197.5,147.9 L1206.7,145.7 L1214.2,145.8 L1215.4,144.0 L1219.3,142.3 L1229.0,140.6 L1236.1,141.9 L1230.5,142.9 L1239.8,143.6 Z M1001.9,290.3 L1004.0,293.2 L1005.9,293.4 L1007.2,294.5 L1003.8,294.8 L1003.1,298.0 L1002.4,299.5 L1000.9,300.4 L1001.0,302.5 L1002.3,305.5 L1006.2,306.3 L1009.0,308.4 L1014.9,309.1 L1021.3,308.0 L1021.7,307.1 L1020.9,304.2 L1021.5,299.9 L1018.3,298.5 L1019.4,295.7 L1016.6,295.4 L1017.5,292.0 L1021.4,293.0 L1025.0,291.6 L1022.0,289.2 L1020.9,286.8 L1017.5,287.9 L1017.1,290.9 L1015.8,288.2 L1015.6,287.2 L1016.6,285.5 L1015.8,284.1 L1011.1,282.7 L1009.2,279.0 L1006.9,277.9 L1006.8,276.6 L1010.8,277.0 L1011.0,274.0 L1014.5,273.3 L1018.1,273.9 L1018.8,269.9 L1018.1,267.4 L1014.0,267.6 L1010.5,266.6 L1005.7,268.4 L1001.9,269.2 L1000.0,271.7 L996.0,272.4 L991.9,276.6 L995.7,280.5 L995.2,283.3 L999.7,288.1 L1001.9,290.3 Z M414.2,141.3 L412.3,141.4 L404.6,141.2 L403.5,140.0 L411.8,140.1 L414.7,140.8 L414.2,141.3 Z M347.0,140.6 L339.3,141.8 L333.2,140.4 L336.6,139.1 L342.6,138.7 L348.4,139.3 L347.0,140.6 Z M901.6,139.9 L892.5,141.6 L885.2,140.7 L888.0,139.6 L885.6,138.3 L894.1,137.5 L895.7,139.0 L901.6,139.9 Z M349.2,136.9 L344.2,137.7 L337.3,137.7 L337.4,137.1 L341.6,135.8 L343.8,136.0 L349.2,136.9 Z M406.0,139.1 L399.9,139.9 L396.6,139.0 L394.8,137.5 L394.5,135.7 L399.8,135.9 L402.2,136.2 L407.1,137.6 L406.0,139.1 Z M388.6,138.0 L390.2,139.7 L383.5,139.3 L376.8,137.9 L367.6,137.8 L371.6,136.5 L366.6,135.6 L366.3,134.0 L374.4,134.5 L385.5,136.0 L388.6,138.0 Z M1232.0,138.1 L1208.8,139.7 L1216.3,134.3 L1219.7,133.8 L1222.8,134.1 L1233.2,136.4 L1232.0,138.1 Z M875.0,132.3 L888.6,135.4 L878.2,137.0 L875.9,140.0 L872.3,140.8 L870.4,144.2 L865.4,144.4 L856.6,141.9 L860.3,140.4 L854.1,139.2 L846.1,135.8 L842.9,132.5 L854.1,131.1 L856.4,132.5 L862.3,132.5 L863.8,131.0 L869.9,130.9 L875.0,132.3 Z M904.6,129.4 L912.7,130.9 L906.6,133.1 L894.7,133.6 L882.5,132.9 L881.8,131.8 L875.9,131.7 L871.4,129.8 L884.1,128.7 L890.1,129.6 L894.2,128.4 L904.6,129.4 Z M1010.2,128.9 L1004.7,129.4 L1001.0,129.7 L1000.4,130.4 L995.6,131.1 L991.2,130.1 L993.5,128.8 L984.4,128.7 L992.4,127.9 L998.6,127.9 L999.5,129.0 L1001.8,128.0 L1005.7,127.3 L1011.8,128.2 L1010.2,128.9 Z M1210.9,135.7 L1201.9,136.2 L1190.4,135.0 L1183.6,133.5 L1180.5,130.5 L1174.9,129.7 L1185.5,126.9 L1194.4,126.0 L1202.4,128.0 L1211.9,132.0 L1210.9,135.7 Z M442.3,132.5 L447.2,133.8 L441.6,135.1 L434.0,138.2 L426.7,138.4 L418.2,137.9 L413.8,136.2 L413.8,134.8 L417.1,133.7 L409.6,133.7 L405.0,132.3 L402.4,130.5 L405.3,128.6 L408.1,127.4 L412.3,127.1 L410.5,126.2 L420.1,125.9 L425.3,128.1 L432.3,129.0 L439.0,129.8 L442.3,132.5 Z M518.4,118.3 L529.4,118.7 L538.2,119.2 L545.7,120.3 L545.5,121.4 L535.5,123.2 L525.6,124.0 L521.9,124.9 L530.8,124.9 L521.1,127.4 L514.4,128.6 L507.4,131.9 L498.9,132.6 L496.3,133.5 L483.8,133.9 L489.5,134.4 L486.6,135.1 L490.0,137.2 L486.1,138.6 L479.8,139.7 L477.8,141.4 L472.1,142.6 L472.7,143.5 L479.7,143.4 L479.8,144.4 L468.8,146.8 L458.1,145.7 L446.0,146.3 L439.9,145.8 L432.1,145.6 L431.6,143.6 L439.2,142.7 L437.2,139.7 L439.7,139.5 L450.7,141.2 L445.0,138.6 L438.4,137.8 L441.7,136.2 L449.0,135.2 L450.2,133.8 L444.4,132.2 L442.6,130.1 L453.9,130.3 L457.1,130.7 L463.5,129.2 L454.3,128.7 L439.9,129.0 L432.6,127.6 L429.2,125.9 L424.4,124.7 L423.5,123.3 L429.6,122.5 L434.4,122.4 L442.5,121.7 L448.5,120.2 L453.6,120.4 L458.0,121.6 L461.2,119.4 L466.6,118.7 L474.0,118.2 L486.5,118.1 L488.7,118.5 L500.6,117.8 L509.5,118.1 L518.4,118.3 Z M688.6,116.6 L714.3,119.9 L706.7,121.5 L691.0,121.7 L668.9,122.1 L670.9,122.8 L685.5,122.3 L697.9,123.8 L705.8,122.5 L709.3,124.0 L704.7,126.4 L715.2,124.8 L735.2,123.2 L747.5,124.0 L749.8,125.8 L733.0,128.7 L730.7,129.7 L717.6,130.4 L727.1,130.6 L722.3,133.6 L719.0,136.2 L719.1,140.8 L724.1,143.5 L717.6,143.7 L710.9,145.0 L718.5,147.2 L719.4,150.6 L715.0,151.0 L720.4,154.6 L711.2,154.9 L716.0,156.5 L714.6,158.0 L708.8,158.6 L703.1,158.6 L708.3,161.4 L708.3,163.2 L700.2,161.5 L698.1,162.6 L703.6,163.7 L709.0,166.2 L710.6,169.5 L703.2,170.3 L700.1,168.7 L695.0,166.3 L696.4,169.1 L691.6,171.3 L702.5,171.5 L708.1,171.7 L697.1,175.3 L685.9,178.5 L673.9,179.9 L669.4,179.9 L665.1,181.5 L659.4,185.9 L650.5,188.8 L647.7,188.9 L642.2,189.9 L636.3,190.9 L632.8,193.4 L632.7,196.3 L630.7,199.0 L624.0,202.3 L625.6,205.5 L623.8,208.9 L621.7,212.9 L615.9,213.2 L609.8,209.8 L601.6,209.8 L597.6,207.5 L594.9,203.5 L587.7,198.4 L585.6,195.7 L585.1,192.1 L579.4,188.3 L580.9,185.2 L578.1,183.8 L582.2,179.0 L588.4,177.4 L590.0,175.7 L590.9,172.5 L586.2,174.0 L583.9,174.6 L580.2,175.2 L575.2,173.8 L574.9,171.0 L576.5,168.8 L580.3,168.8 L588.7,169.9 L581.7,167.3 L578.0,165.9 L573.9,166.4 L570.5,165.4 L575.0,161.6 L572.5,160.1 L569.3,157.2 L564.3,152.9 L559.1,151.3 L559.1,149.5 L548.1,147.1 L539.4,146.8 L528.4,147.0 L518.4,147.3 L513.6,146.0 L506.5,143.4 L517.3,142.1 L525.5,141.9 L507.9,140.8 L498.7,139.2 L499.2,137.6 L514.8,135.6 L529.9,133.6 L531.4,132.1 L520.3,130.6 L523.9,129.0 L538.2,126.1 L544.1,125.7 L542.4,123.8 L552.2,122.8 L564.8,122.1 L577.4,122.1 L581.9,123.3 L592.8,121.1 L602.7,122.6 L608.4,122.9 L617.0,124.3 L607.2,122.1 L607.7,120.3 L621.6,117.9 L636.0,118.0 L641.2,116.5 L655.7,116.1 L688.6,116.6 Z"/>
    <style>
      text { font-family: Inter, ui-sans-serif, system-ui, sans-serif; }
      .grid { fill:none; stroke:#b6e0e3; stroke-opacity:.12; stroke-width:1; }
      .geo-label { fill:#b2d1d2; fill-opacity:.38; font-size:18px; font-weight:700; letter-spacing:5px; }
      .land { fill:url(#ocean); stroke:#9ab8b8; stroke-opacity:.24; stroke-width:1; vector-effect:non-scaling-stroke; }
      .coast-glow { fill:none; stroke:#b7ccca; stroke-opacity:.05; stroke-width:3; vector-effect:non-scaling-stroke; }
      .heat-continent { fill:url(#warmPool); stroke:#ffd06b; stroke-opacity:.96; stroke-width:3.5; stroke-linejoin:round; }
      .heat-shelf { fill:none; stroke:#fff0b8; stroke-opacity:.62; stroke-width:2; stroke-dasharray:14 8; stroke-linecap:round; }
      .current-halo { fill:none; stroke:#031116; stroke-opacity:.72; stroke-width:17; stroke-linecap:round; stroke-linejoin:round; }
      .current { fill:none; stroke:#ffb454; stroke-width:8; stroke-linecap:round; stroke-linejoin:round; filter:url(#softGlow); marker-end:url(#warmArrow); }
      .acc-halo { fill:none; stroke:#031116; stroke-opacity:.76; stroke-width:20; }
      .acc { fill:none; stroke:#8eeaf2; stroke-width:8; stroke-dasharray:20 11; filter:url(#softGlow); marker-end:url(#coldArrow); }
      .gate { fill:#071b22; stroke:#67e4da; stroke-width:4; }
      .callout .leader { fill:none; stroke:#a9c6c6; stroke-opacity:.5; stroke-width:1.5; }
      .callout .anchor { fill:var(--accent); stroke:#071b22; stroke-width:3; }
      .callout rect { fill:#071b22; fill-opacity:.9; stroke:#35555b; stroke-width:1; filter:url(#cardShadow); }
      .callout .number { fill:#071b22; font-size:13px; font-weight:900; text-anchor:middle; }
      .callout .label-title { fill:#eef9f7; font-size:14px; font-weight:750; }
      .callout .label-subtitle { fill:#8da9a9; font-size:11px; }
    </style>
  </defs>

  <rect width="1600" height="1050" fill="#06171c"/>
  <text x="60" y="43" fill="#67e4da" font-size="15" font-weight="900" letter-spacing="4">OSW / FLUID GEOGRAPHY</text>
  <text x="1540" y="43" text-anchor="end" fill="#ffb454" font-size="12" font-weight="800" letter-spacing="2.2">CONCEPTUAL ATLAS · WATER-FIRST · NOT A HEAT BUDGET</text>

  <g clip-path="url(#mapClip)">
    <rect x="60" y="90" width="1480" height="740" fill="url(#ocean)"/>
    <path class="grid" d="M60 275H1540M60 460H1540M60 645H1540M307 90V830M553 90V830M800 90V830M1047 90V830M1293 90V830"/>
    <text class="geo-label" x="210" y="470">PACIFIC</text>
    <text class="geo-label" x="650" y="465">ATLANTIC</text>
    <text class="geo-label" x="1015" y="500">INDIAN</text>
    <text class="geo-label" x="1310" y="470">PACIFIC</text>

    <path d="M60 674C280 650 490 679 735 660C970 642 1260 672 1540 652L1540 760C1280 742 1040 756 800 746C530 735 300 760 60 742Z" fill="url(#buriedBand)" stroke="#b7a7ff" stroke-opacity=".5" stroke-width="2" stroke-dasharray="11 8"/>
    <path d="M770 126C850 102 980 108 1058 146C1090 162 1078 203 1035 221C955 255 824 241 767 206C733 186 739 141 770 126Z" fill="url(#buriedPattern)" stroke="#b7a7ff" stroke-opacity=".6" stroke-width="2" stroke-dasharray="9 7"/>

    <g id="indo-pacific-heat-continent" aria-label="Schematic Indo-Pacific warm-pool heat continent split by the map seam">
      <path class="heat-continent" d="M1090 438Q1114 399 1162 391L1194 398Q1216 368 1256 374L1285 359Q1324 348 1357 370Q1394 353 1428 373L1460 367Q1504 380 1540 410L1540 500Q1504 520 1466 506L1432 513Q1401 519 1378 499Q1342 525 1300 507L1268 495Q1232 512 1203 490Q1160 500 1128 476L1104 466Q1084 454 1090 438Z"/>
      <path class="heat-continent" d="M60 410Q95 390 130 394L159 386Q195 386 218 405L241 421Q261 441 248 464Q235 489 198 497L166 496Q139 515 108 504L82 507Q66 506 60 495Z"/>
      <path class="heat-shelf" d="M1124 438Q1158 414 1197 416L1227 424Q1252 393 1288 397L1320 382Q1352 379 1380 399Q1410 386 1440 401L1471 397Q1492 405 1514 423Q1481 441 1452 449L1421 474Q1388 484 1363 470Q1333 495 1296 481L1265 469Q1234 487 1207 468Q1163 478 1133 459Z"/>
      <path class="heat-shelf" d="M74 438Q105 415 139 421L166 413Q196 418 219 439Q227 452 211 466Q185 486 155 477Q126 493 95 476L76 468"/>
    </g>
    <g id="western-hemisphere-heat-continent" aria-label="Schematic Western Hemisphere seasonal warm-pool heat continent">
      <path class="heat-continent" d="M304 445Q325 416 365 410L401 414Q426 380 465 384L493 372Q524 373 546 391Q582 380 612 399L636 416Q661 440 646 465L623 480Q595 508 557 500L525 506Q500 505 479 488Q443 505 407 489L376 477Q343 479 318 462Q302 454 304 445Z"/>
      <path class="heat-shelf" d="M337 443Q367 425 399 432L430 438Q453 405 485 410L514 398Q542 403 559 422Q588 411 613 430L622 442Q601 450 581 465L555 481Q525 485 502 470Q474 484 447 463Q413 479 380 464L350 455Z"/>
    </g>
    <ellipse cx="205" cy="285" rx="132" ry="78" fill="url(#blob)" stroke="#ff8d84" stroke-width="2.5" stroke-dasharray="11 8"/>
    <path d="M60 444C145 422 250 428 365 451C435 465 485 478 540 500C460 520 375 515 288 493C195 470 121 473 60 480Z" fill="#ff766c" fill-opacity=".22" stroke="#ff8d84" stroke-width="2.5" stroke-dasharray="11 8"/>

    <use href="#landGeometry" class="coast-glow"/>
    <use href="#landGeometry" class="land"/>

    <path class="current-halo" d="M470 390C480 353 506 332 540 315C578 296 620 275 658 250"/>
    <path class="current" d="M470 390C480 353 506 332 540 315C578 296 620 275 658 250"/>
    <path class="current-halo" d="M1330 385C1340 350 1360 333 1395 320C1440 303 1480 282 1515 254"/>
    <path class="current" d="M1330 385C1340 350 1360 333 1395 320C1440 303 1480 282 1515 254"/>
    <path class="current-halo" d="M925 520C944 559 946 597 922 626C895 656 850 655 818 633"/>
    <path class="current" d="M925 520C944 559 946 597 922 626C895 656 850 655 818 633"/>
    <path class="acc-halo" d="M60 704C280 679 500 710 745 693C1002 675 1260 709 1540 690"/>
    <path class="acc" d="M60 704C280 679 500 710 745 693C1002 675 1260 709 1540 690"/>

    <g fill="none" stroke="#ffd06b" stroke-width="4">
      <path d="M602 292c-22-20-53 4-35 28c15 20 50 5 40-21c-8-21-38-20-50-3"/>
      <path d="M852 636c-22-20-53 4-35 28c15 20 50 5 40-21c-8-21-38-20-50-3"/>
      <path d="M1462 294c-20-18-48 4-31 26c14 18 45 4 36-19c-7-19-34-18-45-3"/>
    </g>

    <g>
      <path class="gate" d="M522 682l10 12-10 12-10-12Z"/>
      <path class="gate" d="M1288 470l10 12-10 12-10-12Z"/>
      <path class="gate" d="M905 612l10 12-10 12-10-12Z"/>
    </g>

  </g>

  <rect x="60" y="90" width="1480" height="740" rx="28" fill="none" stroke="#456972" stroke-width="2"/>

  <g transform="translate(60 858)">
    <text x="0" y="17" fill="#67e4da" font-size="12" font-weight="900" letter-spacing="2.5">READ THE MAP BY MECHANISM, NOT COLOR ALONE</text>
    <g transform="translate(0 38)">
      <rect width="282" height="96" rx="14" fill="#0a2229" stroke="#29484f"/>
      <path d="M18 50C22 31 39 25 52 31C65 25 78 35 73 49C69 63 52 68 41 61C28 67 16 60 18 50Z" fill="url(#warmPool)" stroke="#ffc862" stroke-width="2"/>
      <text x="84" y="39" fill="#eef9f7" font-size="14" font-weight="800">RESERVOIR</text><text x="84" y="61" fill="#8da9a9" font-size="11">persistent or seasonal heatmass</text>
    </g>
    <g transform="translate(299 38)">
      <rect width="282" height="96" rx="14" fill="#0a2229" stroke="#29484f"/>
      <path d="M20 58C43 30 62 31 84 50" fill="none" stroke="#ffb454" stroke-width="7" marker-end="url(#warmArrow)"/>
      <text x="104" y="39" fill="#eef9f7" font-size="14" font-weight="800">PATHWAY</text><text x="104" y="61" fill="#8da9a9" font-size="11">current carrying water and energy</text>
    </g>
    <g transform="translate(598 38)">
      <rect width="282" height="96" rx="14" fill="#0a2229" stroke="#29484f"/>
      <ellipse cx="45" cy="48" rx="28" ry="19" fill="url(#blob)" stroke="#ff8d84" stroke-dasharray="7 5"/>
      <text x="86" y="39" fill="#eef9f7" font-size="14" font-weight="800">ANOMALY</text><text x="86" y="61" fill="#8da9a9" font-size="11">temporary departure from baseline</text>
    </g>
    <g transform="translate(897 38)">
      <rect width="282" height="96" rx="14" fill="#0a2229" stroke="#29484f"/>
      <rect x="19" y="29" width="55" height="39" rx="8" fill="url(#buriedPattern)" stroke="#b7a7ff"/>
      <text x="91" y="39" fill="#eef9f7" font-size="14" font-weight="800">BURIED LAYER</text><text x="91" y="61" fill="#8da9a9" font-size="11">warm water below a cold or fresh lid</text>
    </g>
    <g transform="translate(1196 38)">
      <rect width="284" height="96" rx="14" fill="#0a2229" stroke="#29484f"/>
      <path class="gate" d="M42 34l13 14-13 14-13-14Z"/>
      <text x="84" y="39" fill="#eef9f7" font-size="14" font-weight="800">GATE</text><text x="84" y="61" fill="#8da9a9" font-size="11">section constraining exchange</text>
    </g>
    <text x="740" y="160" text-anchor="middle" fill="#789497" font-size="11">NATURAL EARTH COASTLINES · CONCEPTUAL OCEAN OVERLAYS · PERMEABLE, MOVING, DEPTH-DEPENDENT · NOT A LIVE ANALYSIS</text>
  </g>
</svg>
