<svg xmlns="http://www.w3.org/2000/svg" width="1400" height="980" viewBox="0 0 1400 980" role="img" aria-labelledby="title desc" data-motion-level="m3-indonesian-grid-bakeoff"><title id="title">Indonesian gate grid bakeoff</title><desc id="desc">Five rows compare surface wet-point support on one-third-degree OSCAR and one-twelfth-degree HYCOM, followed by a one-day full-depth normal-velocity profile.</desc><metadata>OSCAR values are annual nominal-15-m diagnostics; HYCOM values are one 2018-11-16 daily field on standard z levels. Their velocities must not be treated as a like-for-like skill comparison. The bakeoff tests grid support only. HYCOM sections remain provisional axis-aligned, collocated standard-grid samples rather than native-face fluxes or INSTANT mooring arrays; no area-weighted volume or heat transport is calculated.</metadata><defs><marker id="arrow" viewBox="0 0 6 6" refX="5" refY="3" markerWidth="5" markerHeight="5" orient="auto"><path d="M0 0L6 3L0 6Z" fill="#698486"/></marker><style>text{font-family:Inter,ui-sans-serif,system-ui,sans-serif}.row{fill:#0c252b;stroke:#3f5e62}.code{font:950 18px ui-monospace,Consolas,monospace}.name{fill:#eef9f7;font-size:16px;font-weight:950}.role,.label{fill:#89a2a2;font-size:8px;font-weight:900;letter-spacing:.9px}.count{fill:#eef9f7;font:850 11px ui-monospace,Consolas,monospace}.fine{fill:#698588;font-size:7.5px}.zero{stroke:#587276;stroke-width:.8;stroke-dasharray:3 3}</style></defs><rect width="1400" height="980" fill="#06171c"/><text x="45" y="43" fill="#62d7ce" font-size="14" font-weight="900" letter-spacing="2.4">OSW / INDONESIAN HEAT ROUTES · M3 GRID BAKEOFF</text><text x="45" y="87" fill="#eef9f7" font-size="34" font-weight="950">THE FINER GRID OPENS ALL FIVE.</text><text x="45" y="116" fill="#9db3b2" font-size="12">More wet cells restore candidate sections. They do not validate the section or calculate transport.</text><rect x="1050" y="39" width="305" height="30" rx="15" fill="#102a30" stroke="#f0cf70"/><text x="1202.5" y="59" fill="#f0cf70" text-anchor="middle" font-size="9.5" font-weight="950" letter-spacing="1">ONE DAILY FIELD · NOT A MEAN</text><g><rect x="45" y="170" width="1310" height="112" rx="13" class="row"/><rect x="45" y="170" width="5" height="112" rx="2.5" fill="#62d7ce"/><text x="67" y="201" fill="#62d7ce" class="code">MAK</text><text x="125" y="199" class="name">MAKASSAR STRAIT</text><text x="67" y="223" class="role">PRIMARY UPPER-OCEAN INFLOW</text><text x="318" y="193" class="label">OSCAR 1/3° · SURFACE</text><rect x="318" y="208" width="210" height="13" rx="6.5" fill="#18343a"/><rect x="318" y="208" width="131.2" height="13" rx="6.5" fill="#62d7ce"/><text x="542" y="219" class="count">5/8</text><text x="318" y="247" class="fine">71-FIELD MINIMUM WET SUPPORT</text><path d="M580 221h45" stroke="#698486" stroke-width="1.5" marker-end="url(#arrow)"/><text x="664" y="193" class="label">HYCOM 1/12° · SURFACE</text><rect x="664" y="208" width="210" height="13" rx="6.5" fill="#18343a"/><rect x="664" y="208" width="131.2" height="13" rx="6.5" fill="#62d7ce"/><text x="888" y="219" class="count">20/32</text><text x="664" y="247" class="fine">+0.261 M/S DECLARED-POSITIVE</text><text x="1010" y="186" class="label">ONE-DAY VERTICAL MOTION PROFILE</text><path d="M1010 230h315" class="zero"/><path d="M1010.0,203.8L1029.9,203.4L1038.2,204.4L1044.5,205.6L1054.5,207.8L1064.6,206.7L1073.0,201.4L1080.4,203.1L1087.2,205.0L1099.1,207.9L1109.6,209.2L1119.1,216.1L1136.0,220.9L1150.9,222.3L1164.3,222.9L1176.7,225.4L1188.2,227.1L1199.0,229.3L1209.2,231.2L1218.9,232.4L1228.2,233.4L1237.1,234.0L1245.7,235.2L1254.0,235.4L1273.5,241.8L1291.7,231.0" fill="none" stroke="#62d7ce" stroke-width="2.2"/><text x="1010" y="269" class="fine">0 M</text><text x="1325" y="269" text-anchor="end" class="fine">DEEPEST WET 2000 M</text></g><g><rect x="45" y="302" width="1310" height="112" rx="13" class="row"/><rect x="45" y="302" width="5" height="112" rx="2.5" fill="#7e9dff"/><text x="67" y="333" fill="#7e9dff" class="code">LIF</text><text x="125" y="331" class="name">LIFAMATOLA PASSAGE</text><text x="67" y="355" class="role">DEEP EASTERN INFLOW</text><text x="318" y="325" class="label">OSCAR 1/3° · SURFACE</text><rect x="318" y="340" width="210" height="13" rx="6.5" fill="#18343a"/><rect x="318" y="340" width="210.0" height="13" rx="6.5" fill="#7e9dff"/><text x="542" y="351" class="count">5/5</text><text x="318" y="379" class="fine">71-FIELD MINIMUM WET SUPPORT</text><path d="M580 353h45" stroke="#698486" stroke-width="1.5" marker-end="url(#arrow)"/><text x="664" y="325" class="label">HYCOM 1/12° · SURFACE</text><rect x="664" y="340" width="210" height="13" rx="6.5" fill="#18343a"/><rect x="664" y="340" width="183.8" height="13" rx="6.5" fill="#7e9dff"/><text x="888" y="351" class="count">14/16</text><text x="664" y="379" class="fine">-0.063 M/S DECLARED-POSITIVE</text><text x="1010" y="318" class="label">ONE-DAY VERTICAL MOTION PROFILE</text><path d="M1010 362h315" class="zero"/><path d="M1010.0,368.1L1029.9,373.3L1038.2,378.9L1044.5,382.0L1054.5,387.3L1064.6,390.6L1073.0,381.4L1080.4,365.0L1087.2,358.8L1099.1,344.0L1109.6,338.7L1119.1,339.3L1136.0,347.6L1150.9,349.9L1164.3,350.5L1176.7,349.7L1188.2,351.3L1199.0,353.0L1209.2,356.4L1218.9,359.4L1228.2,360.9L1237.1,361.5L1245.7,361.1L1254.0,357.2L1273.5,357.6" fill="none" stroke="#7e9dff" stroke-width="2.2"/><text x="1010" y="401" class="fine">0 M</text><text x="1325" y="401" text-anchor="end" class="fine">DEEPEST WET 1750 M</text></g><g><rect x="45" y="434" width="1310" height="112" rx="13" class="row"/><rect x="45" y="434" width="5" height="112" rx="2.5" fill="#f0cf70"/><text x="67" y="465" fill="#f0cf70" class="code">LOM</text><text x="125" y="463" class="name">LOMBOK STRAIT</text><text x="67" y="487" class="role">WESTERN OUTFLOW</text><text x="318" y="457" class="label">OSCAR 1/3° · SURFACE</text><rect x="318" y="472" width="210" height="13" rx="6.5" fill="#18343a"/><rect x="318" y="472" width="52.5" height="13" rx="6.5" fill="#f0cf70"/><text x="542" y="483" class="count">1/4</text><text x="318" y="511" class="fine">71-FIELD MINIMUM WET SUPPORT</text><path d="M580 485h45" stroke="#698486" stroke-width="1.5" marker-end="url(#arrow)"/><text x="664" y="457" class="label">HYCOM 1/12° · SURFACE</text><rect x="664" y="472" width="210" height="13" rx="6.5" fill="#18343a"/><rect x="664" y="472" width="86.5" height="13" rx="6.5" fill="#f0cf70"/><text x="888" y="483" class="count">7/17</text><text x="664" y="511" class="fine">+0.247 M/S DECLARED-POSITIVE</text><text x="1010" y="450" class="label">ONE-DAY VERTICAL MOTION PROFILE</text><path d="M1010 494h315" class="zero"/><path d="M1010.0,472.3L1029.9,468.4L1038.2,466.9L1044.5,465.4L1054.5,465.6L1064.6,471.6L1073.0,470.3L1080.4,472.4L1087.2,477.8L1099.1,482.0L1109.6,488.9L1119.1,491.1L1136.0,492.7L1150.9,493.1L1164.3,494.7L1176.7,495.4L1188.2,495.1L1199.0,494.1" fill="none" stroke="#f0cf70" stroke-width="2.2"/><text x="1010" y="533" class="fine">0 M</text><text x="1325" y="533" text-anchor="end" class="fine">DEEPEST WET 900 M</text></g><g><rect x="45" y="566" width="1310" height="112" rx="13" class="row"/><rect x="45" y="566" width="5" height="112" rx="2.5" fill="#dc83ff"/><text x="67" y="597" fill="#dc83ff" class="code">OMB</text><text x="125" y="595" class="name">OMBAI STRAIT</text><text x="67" y="619" class="role">CENTRAL DEEP OUTFLOW</text><text x="318" y="589" class="label">OSCAR 1/3° · SURFACE</text><rect x="318" y="604" width="210" height="13" rx="6.5" fill="#18343a"/><rect x="318" y="604" width="105.0" height="13" rx="6.5" fill="#dc83ff"/><text x="542" y="615" class="count">2/4</text><text x="318" y="643" class="fine">71-FIELD MINIMUM WET SUPPORT</text><path d="M580 617h45" stroke="#698486" stroke-width="1.5" marker-end="url(#arrow)"/><text x="664" y="589" class="label">HYCOM 1/12° · SURFACE</text><rect x="664" y="604" width="210" height="13" rx="6.5" fill="#18343a"/><rect x="664" y="604" width="140.0" height="13" rx="6.5" fill="#dc83ff"/><text x="888" y="615" class="count">10/15</text><text x="664" y="643" class="fine">+0.432 M/S DECLARED-POSITIVE</text><text x="1010" y="582" class="label">ONE-DAY VERTICAL MOTION PROFILE</text><path d="M1010 626h315" class="zero"/><path d="M1010.0,597.4L1029.9,599.7L1038.2,602.3L1044.5,602.3L1054.5,605.9L1064.6,609.0L1073.0,614.6L1080.4,614.8L1087.2,616.1L1099.1,616.9L1109.6,618.4L1119.1,620.1L1136.0,620.3L1150.9,621.3L1164.3,621.2L1176.7,621.7L1188.2,623.2L1199.0,625.2L1209.2,625.8L1218.9,626.0L1228.2,625.9L1237.1,625.7L1245.7,625.5L1254.0,625.1L1273.5,624.8L1291.7,626.3L1325.0,625.7" fill="none" stroke="#dc83ff" stroke-width="2.2"/><text x="1010" y="665" class="fine">0 M</text><text x="1325" y="665" text-anchor="end" class="fine">DEEPEST WET 2500 M</text></g><g><rect x="45" y="698" width="1310" height="112" rx="13" class="row"/><rect x="45" y="698" width="5" height="112" rx="2.5" fill="#ff9a68"/><text x="67" y="729" fill="#ff9a68" class="code">TIM</text><text x="125" y="727" class="name">TIMOR PASSAGE</text><text x="67" y="751" class="role">EASTERN BROAD OUTFLOW</text><text x="318" y="721" class="label">OSCAR 1/3° · SURFACE</text><rect x="318" y="736" width="210" height="13" rx="6.5" fill="#18343a"/><rect x="318" y="736" width="210.0" height="13" rx="6.5" fill="#ff9a68"/><text x="542" y="747" class="count">9/9</text><text x="318" y="775" class="fine">71-FIELD MINIMUM WET SUPPORT</text><path d="M580 749h45" stroke="#698486" stroke-width="1.5" marker-end="url(#arrow)"/><text x="664" y="721" class="label">HYCOM 1/12° · SURFACE</text><rect x="664" y="736" width="210" height="13" rx="6.5" fill="#18343a"/><rect x="664" y="736" width="210.0" height="13" rx="6.5" fill="#ff9a68"/><text x="888" y="747" class="count">38/38</text><text x="664" y="775" class="fine">+0.186 M/S DECLARED-POSITIVE</text><text x="1010" y="714" class="label">ONE-DAY VERTICAL MOTION PROFILE</text><path d="M1010 758h315" class="zero"/><path d="M1010.0,729.4L1029.9,732.5L1038.2,734.0L1044.5,735.3L1054.5,731.9L1064.6,734.3L1073.0,740.5L1080.4,742.9L1087.2,746.3L1099.1,749.3L1109.6,749.5L1119.1,750.9L1136.0,754.7L1150.9,758.0L1164.3,759.9L1176.7,759.4L1188.2,758.9L1199.0,758.0L1209.2,757.1L1218.9,756.5L1228.2,755.4L1237.1,754.0L1245.7,753.7L1254.0,754.3L1273.5,754.9L1291.7,741.7" fill="none" stroke="#ff9a68" stroke-width="2.2"/><text x="1010" y="797" class="fine">0 M</text><text x="1325" y="797" text-anchor="end" class="fine">DEEPEST WET 2000 M</text></g><rect x="45" y="846" width="1310" height="82" rx="13" fill="#0d242a"/><text x="67" y="873" fill="#eef9f7" font-size="13" font-weight="950">RESOLUTION PASSES. TRANSPORT HAS NOT STARTED.</text><text x="67" y="896" fill="#a8bfbd" font-size="9.5">HYCOM restores 7–38 surface wet cells at every candidate and exposes 900–2500 m of standard-level structure. Lifamatola's surface still runs opposite its declared deep route.</text><text x="67" y="916" fill="#a8bfbd" font-size="9.5">Next: section-angle sensitivity, connected wet-column checks, face geometry, thickness, and T/S-defined branch accounting before volume or heat.</text><text x="45" y="960" fill="#536f72" font-size="8">OSCAR: 71 FIVE-DAY FIELDS, DEC 2017–NOV 2018, NOMINAL 15 M · HYCOM GLBA0.08 EXPT 91.2: 2018-11-16, 33 STANDARD Z LEVELS · VELOCITY CURVES ARE NOT CROSS-PRODUCT SKILL SCORES</text></svg>