<svg xmlns="http://www.w3.org/2000/svg" width="1200" height="760" viewBox="0 0 1200 760" role="img">
<title>OSW-D2 connected North Atlantic marine heatwave footprint</title>
<desc>An irregular 41,025 square kilometre connected footprint of 1,769 active NOAA Coral Reef Watch pixels on August 1, 2026. Moderate and strong categories are shown.</desc>
<style>
 .eyebrow{font:700 15px Inter,"Segoe UI",sans-serif;letter-spacing:2.3px;fill:#327184} .title{font:700 42px Georgia,serif;fill:#112c38} .lead{font:400 18px Inter,"Segoe UI",sans-serif;fill:#425d67} .axis{font:500 11px Inter,"Segoe UI",sans-serif;fill:#6f8288} .label{font:650 14px Inter,"Segoe UI",sans-serif;fill:#173946} .metric{font:700 34px Georgia,serif;fill:#112c38} .metriclabel{font:600 12px Inter,"Segoe UI",sans-serif;letter-spacing:1px;fill:#60747d} .body{font:400 14px Inter,"Segoe UI",sans-serif;fill:#536a74}
</style>
<rect width="1200" height="760" fill="#f8fbfa"/><path d="M0 0H1200V12H0Z" fill="#1f7085"/>
<text x="72" y="67" class="eyebrow">OSW · DETECTED OBJECT 02 · DAILY FOOTPRINT</text>
<text x="72" y="122" class="title">The point becomes a place</text>
<text x="72" y="157" class="lead">Connected marine-heatwave pixels · open North Atlantic · 01 August 2026</text>
<rect x="231.44" y="212.00" width="411.11" height="472.00" fill="#edf5f6" stroke="#adc4ca"/>
<g fill="none" stroke="#c9dadd" stroke-width="0.7"><path d="M293.80,212.00V684.00"/><text x="293.80" y="707.00" class="axis" text-anchor="middle">51°W</text><path d="M386.19,212.00V684.00"/><text x="386.19" y="707.00" class="axis" text-anchor="middle">50°W</text><path d="M478.57,212.00V684.00"/><text x="478.57" y="707.00" class="axis" text-anchor="middle">49°W</text><path d="M570.96,212.00V684.00"/><text x="570.96" y="707.00" class="axis" text-anchor="middle">48°W</text><path d="M231.44,582.86H642.56"/><text x="219.44" y="586.86" class="axis" text-anchor="end">40°N</text><path d="M231.44,460.26H642.56"/><text x="219.44" y="464.26" class="axis" text-anchor="end">41°N</text><path d="M231.44,337.66H642.56"/><text x="219.44" y="341.66" class="axis" text-anchor="end">42°N</text><path d="M231.44,215.06H642.56"/><text x="219.44" y="219.06" class="axis" text-anchor="end">43°N</text></g>
<g><rect x="492.43" y="625.77" width="9.24" height="6.13" fill="#ffc857"/><rect x="483.19" y="619.64" width="32.33" height="6.13" fill="#ffc857"/><rect x="483.19" y="613.51" width="36.95" height="6.13" fill="#ffc857"/><rect x="478.57" y="607.38" width="41.57" height="6.13" fill="#ffc857"/><rect x="473.95" y="601.25" width="50.81" height="6.13" fill="#ffc857"/><rect x="473.95" y="595.12" width="55.43" height="6.13" fill="#ffc857"/><rect x="473.95" y="588.99" width="55.43" height="6.13" fill="#ffc857"/><rect x="469.33" y="582.86" width="60.05" height="6.13" fill="#ffc857"/><rect x="469.33" y="576.73" width="55.43" height="6.13" fill="#ffc857"/><rect x="469.33" y="570.60" width="55.43" height="6.13" fill="#ffc857"/><rect x="469.33" y="564.47" width="55.43" height="6.13" fill="#ffc857"/><rect x="469.33" y="558.34" width="55.43" height="6.13" fill="#ffc857"/><rect x="469.33" y="552.21" width="55.43" height="6.13" fill="#ffc857"/><rect x="469.33" y="546.08" width="55.43" height="6.13" fill="#ffc857"/><rect x="469.33" y="539.95" width="55.43" height="6.13" fill="#ffc857"/><rect x="575.58" y="539.95" width="27.72" height="6.13" fill="#ffc857"/><rect x="469.33" y="533.82" width="60.05" height="6.13" fill="#ffc857"/><rect x="570.96" y="533.82" width="32.33" height="6.13" fill="#ffc857"/><rect x="469.33" y="527.69" width="83.15" height="6.13" fill="#ffc857"/><rect x="561.72" y="527.69" width="36.95" height="6.13" fill="#ffc857"/><rect x="469.33" y="521.56" width="129.34" height="6.13" fill="#ffc857"/><rect x="464.72" y="515.43" width="129.34" height="6.13" fill="#ffc857"/><rect x="464.72" y="509.30" width="120.10" height="6.13" fill="#ffc857"/><rect x="460.10" y="503.17" width="120.10" height="6.13" fill="#ffc857"/><rect x="460.10" y="497.04" width="120.10" height="6.13" fill="#ffc857"/><rect x="460.10" y="490.91" width="115.48" height="6.13" fill="#ffc857"/><rect x="455.48" y="484.78" width="120.10" height="6.13" fill="#ffc857"/><rect x="450.86" y="478.65" width="124.72" height="6.13" fill="#ffc857"/><rect x="446.24" y="472.52" width="129.34" height="6.13" fill="#ffc857"/><rect x="441.62" y="466.39" width="133.96" height="6.13" fill="#ffc857"/><rect x="437.00" y="460.26" width="157.05" height="6.13" fill="#ffc857"/><rect x="432.38" y="454.13" width="161.67" height="6.13" fill="#ffc857"/><rect x="427.76" y="448.00" width="161.67" height="6.13" fill="#ffc857"/><rect x="427.76" y="441.87" width="157.05" height="6.13" fill="#ffc857"/><rect x="427.76" y="435.74" width="152.44" height="6.13" fill="#ffc857"/><rect x="423.14" y="429.61" width="152.44" height="6.13" fill="#ffc857"/><rect x="413.90" y="423.48" width="157.05" height="6.13" fill="#ffc857"/><rect x="390.81" y="417.35" width="175.53" height="6.13" fill="#ffc857"/><rect x="353.85" y="411.22" width="203.25" height="6.13" fill="#ffc857"/><rect x="344.62" y="405.09" width="203.25" height="6.13" fill="#ffc857"/><rect x="340.00" y="398.96" width="203.25" height="6.13" fill="#ffc857"/><rect x="335.38" y="392.83" width="203.25" height="6.13" fill="#ffc857"/><rect x="326.14" y="386.70" width="207.87" height="6.13" fill="#ffc857"/><rect x="293.80" y="380.57" width="240.20" height="6.13" fill="#ffc857"/><rect x="289.18" y="374.44" width="240.20" height="6.13" fill="#ffc857"/><rect x="289.18" y="368.31" width="235.58" height="6.13" fill="#ffc857"/><rect x="284.56" y="362.18" width="240.20" height="6.13" fill="#ffc857"/><rect x="284.56" y="356.05" width="235.58" height="6.13" fill="#ffc857"/><rect x="284.56" y="349.92" width="235.58" height="6.13" fill="#ffc857"/><rect x="284.56" y="343.79" width="133.96" height="6.13" fill="#ffc857"/><rect x="418.52" y="343.79" width="9.24" height="6.13" fill="#f47a37"/><rect x="427.76" y="343.79" width="87.77" height="6.13" fill="#ffc857"/><rect x="279.95" y="337.66" width="152.44" height="6.13" fill="#ffc857"/><rect x="432.38" y="337.66" width="4.62" height="6.13" fill="#f47a37"/><rect x="437.00" y="337.66" width="73.91" height="6.13" fill="#ffc857"/><rect x="279.95" y="331.53" width="221.72" height="6.13" fill="#ffc857"/><rect x="279.95" y="325.40" width="217.10" height="6.13" fill="#ffc857"/><rect x="279.95" y="319.27" width="203.25" height="6.13" fill="#ffc857"/><rect x="275.33" y="313.14" width="203.25" height="6.13" fill="#ffc857"/><rect x="275.33" y="307.01" width="194.01" height="6.13" fill="#ffc857"/><rect x="270.71" y="300.88" width="184.77" height="6.13" fill="#ffc857"/><rect x="275.33" y="294.75" width="166.29" height="6.13" fill="#ffc857"/><rect x="289.18" y="288.62" width="143.20" height="6.13" fill="#ffc857"/><rect x="307.66" y="282.49" width="115.48" height="6.13" fill="#ffc857"/><rect x="326.14" y="276.36" width="87.77" height="6.13" fill="#ffc857"/><rect x="330.76" y="270.23" width="23.10" height="6.13" fill="#ffc857"/><rect x="335.38" y="264.10" width="13.86" height="6.13" fill="#ffc857"/></g><path d="M584.82,448.00H589.44M589.44,448.00V454.13M575.58,497.04H580.20M580.20,497.04V503.17M293.80,288.62H298.42M575.58,490.91V497.04M340.00,264.10H344.62M478.57,613.51H483.19M478.57,607.38V613.51M427.76,441.87V448.00M312.28,386.70H316.90M524.77,582.86H529.38M529.38,582.86V588.99M547.86,533.82H552.48M552.48,527.69V533.82M404.67,423.48H409.28M529.38,380.57H534.00M534.00,380.57V386.70M284.56,294.75H289.18M478.57,319.27H483.19M483.19,319.27V325.40M432.38,460.26H437.00M432.38,454.13V460.26M372.33,417.35H376.95M473.95,595.12V601.25M390.81,276.36H395.43M432.38,294.75H437.00M469.33,552.21V558.34M469.33,313.14H473.95M598.67,533.82H603.29M603.29,533.82V539.95M464.72,509.30V515.43M284.56,343.79V349.92M520.15,607.38V613.51M487.81,325.40H492.43M303.04,386.70H307.66M395.43,423.48H400.05M524.77,564.47V570.60M538.62,398.96H543.24M543.24,398.96V405.09M575.58,466.39V472.52M524.77,539.95V546.08M487.81,625.77H492.43M510.91,625.77H515.53M515.53,619.64V625.77M367.71,276.36H372.33M427.76,435.74V441.87M363.09,417.35H367.71M404.67,276.36H409.28M584.82,466.39H589.44M423.14,435.74H427.76M423.14,429.61V435.74M284.56,349.92V356.05M575.58,435.74H580.20M580.20,435.74V441.87M524.77,374.44H529.38M529.38,374.44V380.57M427.76,454.13H432.38M427.76,448.00V454.13M524.77,539.95H529.38M529.38,533.82V539.95M570.96,429.61H575.58M575.58,429.61V435.74M349.23,270.23H353.85M353.85,270.23V276.36M460.10,490.91V497.04M534.00,386.70V392.83M580.20,509.30H584.82M584.82,509.30V515.43M469.33,527.69V533.82M293.80,386.70H298.42M293.80,380.57V386.70M316.90,386.70H321.52M409.28,423.48H413.90M598.67,527.69V533.82M450.86,300.88H455.48M455.48,300.88V307.01M501.67,625.77H506.29M358.47,276.36H363.09M381.57,276.36H386.19M437.00,466.39H441.62M437.00,460.26V466.39M353.85,417.35H358.47M353.85,411.22V417.35M376.95,417.35H381.57M395.43,276.36H400.05M289.18,368.31V374.44M515.53,619.64H520.15M520.15,613.51V619.64M547.86,411.22H552.48M326.14,392.83H330.76M326.14,386.70V392.83M446.24,478.65H450.86M446.24,472.52V478.65M524.77,570.60V576.73M497.05,331.53H501.67M501.67,331.53V337.66M460.10,307.01H464.72M575.58,472.52V478.65M423.14,288.62H427.76M529.38,588.99V595.12M492.43,325.40H497.05M497.05,325.40V331.53M307.66,386.70H312.28M270.71,300.88H275.33M270.71,307.01H275.33M270.71,300.88V307.01M284.56,356.05V362.18M557.10,417.35H561.72M441.62,300.88H446.24M552.48,527.69H557.10M589.44,546.08H594.05M326.14,276.36H330.76M326.14,276.36V282.49M372.33,276.36H376.95M469.33,558.34V564.47M386.19,417.35H390.81M524.77,576.73V582.86M575.58,466.39H580.20M279.95,331.53V337.66M469.33,533.82V539.95M570.96,539.95H575.58M570.96,533.82V539.95M330.76,270.23H335.38M330.76,270.23V276.36M497.05,631.90H501.67M501.67,625.77V631.90M538.62,533.82H543.24M561.72,533.82H566.34M561.72,527.69V533.82M279.95,343.79H284.56M279.95,337.66V343.79M524.77,546.08V552.21M520.15,362.18H524.77M524.77,362.18V368.31M321.52,282.49H326.14M580.20,546.08H584.82M363.09,276.36H367.71M575.58,478.65V484.78M335.38,398.96H340.00M335.38,392.83V398.96M524.77,601.25H529.38M529.38,595.12V601.25M275.33,319.27H279.95M275.33,313.14V319.27M464.72,521.56H469.33M464.72,515.43V521.56M589.44,466.39H594.05M594.05,460.26V466.39M330.76,392.83H335.38M589.44,515.43H594.05M594.05,515.43V521.56M289.18,288.62H293.80M289.18,288.62V294.75M515.53,349.92H520.15M520.15,349.92V356.05M464.72,307.01H469.33M469.33,307.01V313.14M413.90,429.61H418.52M413.90,423.48V429.61M469.33,564.47V570.60M566.34,423.48H570.96M570.96,423.48V429.61M469.33,539.95V546.08M580.20,441.87H584.82M584.82,441.87V448.00M561.72,417.35H566.34M566.34,417.35V423.48M557.10,527.69H561.72M312.28,282.49H316.90M594.05,546.08H598.67M275.33,294.75H279.95M275.33,294.75V300.88M353.85,276.36H358.47M376.95,276.36H381.57M506.29,337.66H510.91M510.91,337.66V343.79M289.18,380.57H293.80M289.18,374.44V380.57M580.20,466.39H584.82M524.77,552.21V558.34M524.77,368.31V374.44M446.24,300.88H450.86M455.48,307.01H460.10M298.42,288.62H303.04M344.62,411.22H349.23M344.62,405.09V411.22M344.62,264.10H349.23M349.23,264.10V270.23M427.76,288.62H432.38M432.38,288.62V294.75M400.05,423.48H404.67M529.38,533.82H534.00M455.48,490.91H460.10M455.48,484.78V490.91M460.10,509.30H464.72M460.10,503.17V509.30M413.90,282.49H418.52M584.82,546.08H589.44M520.15,356.05V362.18M473.95,607.38H478.57M473.95,601.25V607.38M386.19,276.36H390.81M409.28,276.36H413.90M413.90,276.36V282.49M437.00,294.75H441.62M441.62,294.75V300.88M469.33,570.60V576.73M534.00,392.83H538.62M538.62,392.83V398.96M473.95,313.14H478.57M478.57,313.14V319.27M279.95,325.40V331.53M284.56,368.31H289.18M284.56,362.18V368.31M335.38,264.10H340.00M335.38,264.10V270.23M418.52,429.61H423.14M492.43,631.90H497.05M492.43,625.77V631.90M543.24,533.82H547.86M566.34,533.82H570.96M316.90,282.49H321.52M575.58,484.78V490.91M450.86,484.78H455.48M450.86,478.65V484.78M279.95,294.75H284.56M580.20,503.17V509.30M469.33,576.73V582.86M400.05,276.36H404.67M367.71,417.35H372.33M483.19,613.51V619.64M460.10,497.04V503.17M584.82,515.43H589.44M275.33,307.01V313.14M303.04,288.62H307.66M349.23,411.22H353.85M473.95,588.99V595.12M469.33,588.99H473.95M469.33,582.86V588.99M483.19,325.40H487.81M469.33,546.08V552.21M543.24,405.09H547.86M547.86,405.09V411.22M298.42,386.70H303.04M321.52,386.70H326.14M340.00,405.09H344.62M340.00,398.96V405.09M534.00,533.82H538.62M279.95,319.27V325.40M441.62,472.52H446.24M441.62,466.39V472.52M469.33,521.56V527.69M510.91,343.79H515.53M515.53,343.79V349.92M390.81,423.48H395.43M390.81,417.35V423.48M307.66,282.49H312.28M307.66,282.49V288.62M594.05,521.56H598.67M598.67,521.56V527.69M418.52,282.49H423.14M423.14,282.49V288.62M483.19,625.77H487.81M483.19,619.64V625.77M506.29,625.77H510.91M501.67,337.66H506.29M575.58,546.08H580.20M575.58,539.95V546.08M598.67,546.08H603.29M603.29,539.95V546.08M358.47,417.35H363.09M381.57,417.35H386.19M520.15,607.38H524.77M524.77,601.25V607.38M524.77,558.34V564.47M589.44,454.13H594.05M594.05,454.13V460.26M552.48,411.22H557.10M557.10,411.22V417.35" fill="none" stroke="#843b2f" stroke-width="1.15" stroke-linecap="square"/>
<circle cx="397.74" cy="322.34" r="5.5" fill="#f8fbfa" stroke="#143844" stroke-width="2"/><path d="M397.74,309.34V315.34" stroke="#143844" stroke-width="1.5"/>
<text x="407.74" y="313.34" class="label">OSW-D1 anchor</text>
<g transform="translate(864 238)">
 <text class="metric">41,025</text><text y="28" x="145" class="metriclabel">KM²</text><text y="51" class="metriclabel">SPHERICAL CELL AREA</text>
 <line y1="76" x2="270" y2="76" stroke="#cadadc"/>
 <text y="122" class="metric">1,769</text><text y="151" class="metriclabel">CONNECTED 0.05° PIXELS</text>
 <line y1="177" x2="270" y2="177" stroke="#cadadc"/>
 <text y="220" class="metric">2</text><text y="247" class="metriclabel">MAXIMUM · STRONG</text>
 <line y1="273" x2="270" y2="273" stroke="#cadadc"/>
 <text y="307" class="label">CENTROID</text><text y="332" class="body">41.375°N · 49.330°W</text>
 <rect y="365" width="18" height="18" rx="3" fill="#ffc857"/><text x="27" y="379" class="body">moderate · 1766 px</text>
 <rect y="395" width="18" height="18" rx="3" fill="#f47a37"/><text x="27" y="409" class="body">strong · 3 px</text>
</g>
<text x="72" y="728" class="body">Native-grid, four-neighbor connectivity containing the duration-qualified anchor. Daily surface footprint—not yet a tracked volume, heat inventory, transport, cause, or impact.</text>
</svg>